<svg version="1.1" id="Layer_1" xmlns="http://www.w3.org/2000/svg" xmlns:xlink="http://www.w3.org/1999/xlink" x="0px" y="0px"
	 width="100%" viewBox="0 0 3125 1875" enable-background="new 0 0 3125 1875" xml:space="preserve">
<path fill="#000000" opacity="1.000000" stroke="none" 
	d="
M2284.000000,1878.000000 
	C1522.666626,1878.000000 762.333313,1878.000000 2.000000,1878.000000 
	C2.000000,1252.666626 2.000000,627.333313 2.000000,2.000000 
	C1044.000000,2.000000 2086.000000,2.000000 3128.000000,2.000000 
	C3128.000000,627.333313 3128.000000,1252.666626 3128.000000,1878.000000 
	C2847.000000,1878.000000 2566.000000,1878.000000 2284.000000,1878.000000 
M1136.349976,341.283997 
	C1112.216064,383.641449 1088.082153,425.998932 1063.948120,468.356384 
	C1066.817505,468.847015 1068.511108,468.200043 1070.068604,467.313751 
	C1079.602905,461.888245 1089.109253,456.413513 1098.619629,450.945862 
	C1149.951294,421.434479 1201.290649,391.936401 1252.609619,362.402832 
	C1306.791870,331.221497 1361.000366,300.084869 1415.043701,268.664276 
	C1419.734985,265.936737 1422.936523,265.631866 1427.662109,268.421936 
	C1462.300171,288.872406 1497.226807,308.834412 1531.848633,329.312103 
	C1557.279907,344.354034 1582.145386,360.359894 1607.687256,375.206238 
	C1668.927734,410.802673 1730.414429,445.975342 1791.828857,481.271942 
	C1793.345337,482.143494 1795.178101,482.464355 1797.202881,483.158447 
	C1797.202881,437.758636 1797.202881,393.203949 1797.202881,348.826599 
	C1795.676392,347.844360 1794.584717,347.078583 1793.435791,346.411865 
	C1724.691284,306.517487 1655.945068,266.625916 1587.192139,226.745850 
	C1533.385498,195.535355 1479.548950,164.376648 1425.799438,133.068069 
	C1421.541504,130.587906 1418.233032,128.834335 1413.126953,131.884094 
	C1392.572754,144.160614 1371.701172,155.905502 1350.965576,167.879074 
	C1296.249512,199.474396 1241.552002,231.101669 1186.819946,262.669189 
	C1181.214355,265.902344 1176.921753,270.055389 1173.701294,275.848999 
	C1161.737183,297.372498 1149.376221,318.675354 1136.349976,341.283997 
M1630.783081,1130.221191 
	C1657.993164,1146.127563 1685.203125,1162.033936 1713.210571,1178.406494 
	C1727.212280,1170.370850 1741.916138,1161.990601 1756.564819,1153.515015 
	C1819.906250,1116.866333 1883.258667,1080.236084 1946.489990,1043.398315 
	C1950.007690,1041.348999 1953.227051,1037.942139 1955.313599,1034.414795 
	C1972.246948,1005.787598 1988.980835,977.040710 2005.571777,948.212769 
	C2025.311157,913.914185 2044.852783,879.501709 2064.454346,845.123901 
	C2065.160400,843.885559 2065.590820,842.490295 2066.995605,839.167542 
	C2061.900391,841.777344 2058.687500,843.241882 2055.648926,845.007324 
	C2023.734375,863.551331 1991.846924,882.142334 1959.953247,900.722290 
	C1920.006226,923.993835 1880.066772,947.278564 1840.111938,970.536804 
	C1800.453735,993.622559 1760.744995,1016.622009 1721.161377,1039.834595 
	C1716.543579,1042.542603 1713.057739,1042.466797 1708.419067,1039.652100 
	C1693.646484,1030.688232 1678.519165,1022.309631 1663.552368,1013.664490 
	C1612.289673,984.053894 1561.025513,954.445862 1509.783813,924.798950 
	C1460.556152,896.317383 1411.368164,867.767456 1362.131958,839.300842 
	C1353.368408,834.234131 1344.454102,829.427917 1335.154663,824.248230 
	C1334.738159,826.488831 1334.410767,827.430359 1334.409912,828.372131 
	C1334.368896,869.362061 1334.446899,910.352417 1334.227051,951.341248 
	C1334.199585,956.481567 1336.361206,959.184387 1340.437012,961.553101 
	C1395.371826,993.478821 1450.240234,1025.518677 1505.164673,1057.462402 
	C1546.573364,1081.545410 1588.038696,1105.531250 1630.783081,1130.221191 
M1341.776123,478.784943 
	C1374.950684,459.742310 1408.316650,441.023407 1441.245972,421.565735 
	C1473.973389,402.227325 1507.449829,384.126831 1540.827759,363.430023 
	C1503.029419,341.699249 1466.638916,320.953003 1430.483765,299.804718 
	C1425.015503,296.606110 1421.155762,298.385376 1416.762329,300.945435 
	C1392.044312,315.348602 1367.302002,329.710052 1342.602661,344.145020 
	C1292.343506,373.517792 1242.115723,402.944031 1191.857788,432.318726 
	C1145.614868,459.346710 1099.377197,486.383636 1053.054810,513.274658 
	C1048.008179,516.204407 1045.499634,519.464478 1045.515015,525.760193 
	C1045.728760,613.754272 1045.607910,701.749268 1045.818481,789.743408 
	C1045.828979,794.117004 1047.324097,798.935547 1049.487183,802.782654 
	C1063.341553,827.423401 1077.577148,851.849548 1091.685425,876.347534 
	C1113.100220,913.532410 1134.499878,950.725891 1155.963257,987.882568 
	C1157.125366,989.894287 1158.814697,991.601440 1161.667480,995.254700 
	C1161.667480,988.686951 1161.667480,984.704407 1161.667480,980.721924 
	C1161.667603,852.396362 1161.733154,724.070740 1161.502930,595.745605 
	C1161.489380,588.162720 1163.567383,583.805542 1170.355225,579.940186 
	C1196.361938,565.130798 1221.942505,549.574097 1247.707153,534.338501 
	C1278.631958,516.051636 1309.582275,497.807953 1341.776123,478.784943 
M1890.503052,771.561584 
	C1888.187378,772.869629 1885.830200,774.109558 1883.562378,775.495789 
	C1835.621460,804.799438 1788.163818,834.888550 1739.073242,862.302002 
	C1693.191650,887.923462 1647.683838,914.215027 1602.056519,940.290283 
	C1599.126709,941.964600 1595.504639,943.057495 1593.732056,946.827332 
	C1630.097900,967.977234 1666.053833,988.806824 1701.890747,1009.838745 
	C1706.184937,1012.358887 1709.437134,1012.288330 1713.753784,1009.749512 
	C1769.362061,977.043091 1825.078857,944.520996 1880.777954,911.968933 
	C1946.272461,873.692017 2011.717773,835.330139 2077.366943,797.320068 
	C2083.946045,793.510925 2086.567383,789.570129 2086.539307,781.762085 
	C2086.226562,694.775696 2086.304443,607.787720 2086.420898,520.800354 
	C2086.429199,514.606934 2085.186035,509.199921 2082.020264,503.794464 
	C2064.544189,473.955231 2047.305298,443.976837 2030.049194,414.009155 
	C2011.959106,382.593140 1993.953003,351.128784 1975.862915,319.712738 
	C1974.811401,317.886566 1973.337280,316.303772 1972.059692,314.607758 
	C1971.463257,314.774933 1970.866699,314.942108 1970.270264,315.109253 
	C1970.270264,451.169250 1970.270264,587.229248 1970.270264,722.751221 
	C1943.385864,739.192810 1917.560669,754.986694 1890.503052,771.561584 
M1306.332275,956.783081 
	C1306.332275,816.347839 1306.332275,675.912659 1306.332275,534.073059 
	C1302.429688,535.943054 1300.026123,536.911499 1297.800049,538.188782 
	C1264.917847,557.056274 1232.186890,576.193542 1199.092529,594.679993 
	C1192.065674,598.605042 1189.475220,602.854675 1189.490112,610.949280 
	C1189.746094,750.885803 1189.674438,890.822998 1189.674438,1030.760010 
	C1189.674438,1034.346313 1189.674438,1037.932495 1189.674438,1041.244385 
	C1193.116211,1043.292603 1195.657593,1044.862427 1198.251587,1046.339600 
	C1220.201782,1058.838745 1242.168213,1071.309204 1264.117065,1083.810669 
	C1314.668335,1112.603516 1365.236206,1141.366943 1415.725952,1170.267212 
	C1421.378052,1173.502563 1427.033569,1175.118774 1433.639282,1175.103027 
	C1504.606934,1174.933716 1575.575195,1175.005249 1646.543213,1174.974976 
	C1649.736084,1174.973633 1652.928711,1174.630005 1658.099243,1174.331665 
	C1655.232422,1172.051025 1654.131348,1170.915283 1652.811157,1170.165405 
	C1640.676880,1163.272949 1628.481689,1156.487671 1616.347778,1149.594482 
	C1578.192627,1127.918701 1540.100952,1106.130737 1501.902588,1084.531494 
	C1441.123779,1050.164185 1380.445190,1015.612122 1319.299316,981.908936 
	C1309.002808,976.233521 1304.272217,970.024414 1306.332275,956.783081 
M1942.325928,279.349854 
	C1942.325928,275.085114 1942.325928,270.820343 1942.325928,266.686066 
	C1919.342651,253.536423 1897.150146,240.775513 1874.897705,228.120422 
	C1822.002686,198.038834 1769.117554,167.939255 1716.092529,138.088165 
	C1711.961670,135.762604 1706.775146,134.186157 1702.072754,134.170486 
	C1629.422974,133.928055 1556.772095,133.994568 1484.121460,134.041199 
	C1482.126831,134.042465 1480.132446,134.618835 1476.635132,135.159241 
	C1479.785889,137.177811 1481.402100,138.319229 1483.113281,139.293579 
	C1504.202393,151.300949 1525.302979,163.288193 1546.405396,175.272324 
	C1596.428467,203.680557 1646.458130,232.077042 1696.477173,260.492035 
	C1735.799438,282.830200 1774.937988,305.501495 1814.556641,327.300446 
	C1823.505737,332.224426 1825.905518,337.924896 1825.883179,347.661224 
	C1825.566772,485.296753 1825.667847,622.933289 1825.667847,760.569519 
	C1825.667847,764.721985 1825.667847,768.874512 1825.667847,774.408081 
	C1830.219971,772.011414 1833.142090,770.588257 1835.954712,768.974365 
	C1867.985229,750.595947 1899.828735,731.880798 1932.140015,714.010864 
	C1939.950928,709.690918 1942.555054,705.018616 1942.535889,696.178284 
	C1942.236328,557.876099 1942.325928,419.573151 1942.325928,279.349854 
M988.400208,1731.651123 
	C991.460754,1741.446655 993.044739,1742.868408 1003.047607,1742.951172 
	C1021.041504,1743.100098 1039.038452,1743.098755 1057.032471,1742.947144 
	C1067.023438,1742.863037 1070.687256,1739.276855 1071.576782,1729.241943 
	C1071.840820,1726.264526 1071.672363,1723.247314 1071.672607,1720.248291 
	C1071.676392,1669.595093 1071.675781,1618.941772 1071.676147,1568.288574 
	C1071.676147,1564.795776 1071.676025,1561.302979 1071.676025,1557.810181 
	C1074.548950,1558.569214 1075.591187,1559.652832 1076.327759,1560.914795 
	C1083.703003,1573.550537 1091.049316,1586.203247 1098.361328,1598.875732 
	C1106.177734,1612.422729 1114.017334,1625.956909 1121.714233,1639.571655 
	C1126.626099,1648.260132 1132.804443,1654.282349 1143.888794,1653.116699 
	C1149.821899,1652.492798 1155.892578,1652.702148 1161.867798,1653.072266 
	C1169.768921,1653.561523 1175.310181,1650.161865 1179.346924,1643.728149 
	C1180.937988,1641.192261 1182.471069,1638.617432 1183.955322,1636.017456 
	C1197.484131,1612.318848 1210.938354,1588.577393 1224.589355,1564.949463 
	C1226.235596,1562.100220 1227.118164,1558.248779 1231.669189,1556.556519 
	C1231.669189,1561.034180 1231.669189,1564.682007 1231.669189,1568.329834 
	C1231.669312,1618.316650 1231.654541,1668.303345 1231.695190,1718.290161 
	C1231.698730,1722.612427 1231.826782,1726.962158 1232.319458,1731.250610 
	C1233.232788,1739.200073 1236.558960,1742.724243 1244.532104,1742.848511 
	C1263.521973,1743.144775 1282.522827,1743.136230 1301.512573,1742.831909 
	C1308.901733,1742.713379 1312.293335,1739.132202 1313.470825,1731.868286 
	C1313.787842,1729.913696 1313.661987,1727.880005 1313.662109,1725.882568 
	C1313.669067,1621.910034 1313.686523,1517.937622 1313.644287,1413.965088 
	C1313.638794,1400.326660 1310.279785,1397.099487 1296.323364,1397.016479 
	C1280.661499,1396.923340 1264.991455,1397.280884 1249.338257,1396.899780 
	C1238.072144,1396.625488 1230.746826,1401.228516 1225.282837,1411.159424 
	C1203.002075,1451.654419 1180.249756,1491.890259 1157.628296,1532.197388 
	C1155.894409,1535.286743 1153.825806,1538.188354 1151.412598,1541.958740 
	C1143.799072,1528.431519 1136.780029,1516.035522 1129.831543,1503.600098 
	C1112.480347,1472.546997 1094.946411,1441.592651 1077.956543,1410.342896 
	C1072.655640,1400.592896 1065.202271,1396.727783 1054.501343,1396.921021 
	C1038.177612,1397.216064 1021.844666,1396.989624 1005.515686,1397.006104 
	C1003.518982,1397.008057 1001.495239,1396.958496 999.530579,1397.248413 
	C992.032043,1398.354248 989.040405,1401.525024 988.403931,1408.968262 
	C988.234131,1410.954590 988.329651,1412.964844 988.329712,1414.964111 
	C988.333862,1519.936279 988.340698,1624.908569 988.400208,1731.651123 
M2160.007812,1629.927002 
	C2162.480713,1635.669678 2164.438477,1641.711304 2167.555420,1647.080078 
	C2171.549072,1653.959351 2176.528809,1660.261230 2180.990723,1666.874756 
	C2195.318604,1688.112427 2209.669678,1709.334839 2223.874268,1730.654785 
	C2230.014648,1739.871460 2238.458008,1743.351074 2249.376465,1743.113403 
	C2268.028809,1742.707153 2286.696533,1743.003052 2305.357666,1742.997559 
	C2307.356934,1742.996948 2309.367920,1743.085083 2311.353027,1742.905151 
	C2318.160889,1742.288574 2320.674072,1740.128174 2320.106445,1733.525757 
	C2319.758301,1729.476074 2318.171875,1725.093872 2315.878662,1721.719360 
	C2296.064209,1692.563232 2275.933838,1663.621948 2255.973389,1634.564575 
	C2252.531006,1629.553223 2249.447266,1624.295532 2246.018555,1618.867798 
	C2248.816406,1617.608887 2250.343262,1616.963745 2251.834229,1616.244873 
	C2279.067383,1603.113525 2298.702881,1582.761719 2309.981201,1554.621460 
	C2319.602783,1530.615601 2319.710449,1506.022217 2313.825684,1481.187378 
	C2305.110596,1444.410522 2283.086914,1419.183228 2247.554443,1406.260254 
	C2230.509277,1400.060913 2212.529785,1398.184204 2194.512939,1398.084717 
	C2147.861328,1397.827026 2101.207031,1397.994385 2054.553955,1398.000244 
	C2037.405273,1398.002441 2035.663452,1399.735229 2035.662476,1416.882202 
	C2035.656494,1519.519287 2035.659668,1622.156250 2035.660767,1724.793335 
	C2035.660767,1726.792725 2035.605103,1728.795166 2035.692627,1730.791016 
	C2036.049194,1738.917725 2039.191772,1742.729370 2047.080444,1742.848022 
	C2066.403564,1743.138428 2085.736328,1743.126587 2105.060303,1742.869751 
	C2113.501953,1742.757690 2116.939209,1739.022949 2117.590088,1730.557983 
	C2117.819580,1727.575562 2117.664551,1724.562744 2117.664795,1721.563721 
	C2117.667236,1642.586548 2117.666992,1563.609253 2117.666992,1484.632080 
	C2117.666992,1480.739014 2117.666992,1476.846069 2117.666992,1472.806885 
	C2120.194580,1472.428955 2121.461670,1472.077148 2122.729248,1472.074463 
	C2144.389404,1472.028564 2166.053711,1471.797363 2187.707520,1472.163818 
	C2193.602051,1472.263550 2199.733398,1473.440918 2205.292725,1475.423340 
	C2221.195557,1481.093628 2231.457764,1492.250000 2234.058594,1509.207886 
	C2236.634033,1526.003418 2230.115234,1539.273804 2216.223145,1548.718750 
	C2207.250244,1554.819458 2197.279541,1558.363647 2186.180420,1558.024170 
	C2182.187988,1557.902100 2178.157471,1557.800049 2174.193604,1558.189453 
	C2162.906006,1559.298096 2159.741455,1562.766479 2159.693359,1574.163086 
	C2159.617676,1592.156982 2159.726074,1610.151611 2160.007812,1629.927002 
M3009.099121,1713.856079 
	C2974.121826,1656.187256 2939.144531,1598.518555 2904.064453,1540.680176 
	C2909.336914,1534.791626 2914.110107,1529.311768 2919.041016,1523.977661 
	C2952.225586,1488.080933 2985.426270,1452.198730 3018.674316,1416.360840 
	C3022.459717,1412.280396 3025.861572,1407.970703 3023.723145,1402.177490 
	C3021.503662,1396.164917 3015.739990,1397.060669 3010.867432,1397.037476 
	C2989.541992,1396.935669 2968.213379,1397.182861 2946.890625,1396.926392 
	C2934.683594,1396.779663 2925.140137,1401.280151 2917.319824,1410.625122 
	C2909.229736,1420.293213 2900.584229,1429.498413 2892.125488,1438.855469 
	C2870.093018,1463.227539 2848.059570,1487.598389 2825.955322,1511.905273 
	C2821.466553,1516.841187 2816.666260,1521.494141 2810.341309,1527.991211 
	C2810.341309,1521.619995 2810.341553,1518.005615 2810.341309,1514.391357 
	C2810.341064,1481.069458 2810.059814,1447.743774 2810.491211,1414.427490 
	C2810.643311,1402.691162 2806.402832,1396.972412 2793.135498,1396.996460 
	C2777.141113,1397.025513 2761.142578,1396.789673 2745.153320,1397.078003 
	C2732.120361,1397.313110 2728.572021,1400.950562 2727.744141,1413.639771 
	C2727.592529,1415.963623 2727.655762,1418.302979 2727.655518,1420.635132 
	C2727.651855,1521.267456 2727.645508,1621.899658 2727.679443,1722.531982 
	C2727.680420,1725.846191 2727.809082,1729.208740 2728.370361,1732.463989 
	C2729.538086,1739.237793 2732.974854,1742.748779 2739.661865,1742.836792 
	C2759.317871,1743.095581 2778.981689,1743.112671 2798.637451,1742.839233 
	C2806.242188,1742.733521 2809.334473,1739.395874 2810.203125,1731.870239 
	C2810.507080,1729.236328 2810.336182,1726.544800 2810.336914,1723.879517 
	C2810.344238,1697.221924 2810.483154,1670.563232 2810.242188,1643.907715 
	C2810.183594,1637.417847 2812.111572,1632.484985 2816.818359,1628.003418 
	C2823.310791,1621.822021 2829.214600,1615.025635 2835.474365,1608.593872 
	C2837.645996,1606.362549 2840.127441,1604.432983 2843.011963,1601.884399 
	C2861.928467,1633.672363 2880.018799,1664.311768 2898.367432,1694.795898 
	C2906.420898,1708.175781 2914.821045,1721.357300 2923.422119,1734.392578 
	C2927.322754,1740.304321 2933.513428,1742.926636 2940.564209,1742.949585 
	C2962.889648,1743.022461 2985.216797,1743.123535 3007.540283,1742.896851 
	C3016.541992,1742.805542 3020.394531,1737.497070 3017.460693,1729.027710 
	C3015.752686,1724.097778 3012.495605,1719.704468 3009.099121,1713.856079 
M208.943863,1393.995239 
	C187.582047,1398.842163 167.765961,1407.237915 150.458710,1420.765991 
	C123.551056,1441.797729 108.029785,1469.077148 107.750824,1503.723511 
	C107.394035,1548.036133 107.447472,1592.355225 107.740028,1636.668823 
	C107.955147,1669.252441 121.422180,1695.783569 146.328278,1716.552368 
	C172.044998,1737.997192 202.279251,1748.300049 235.177582,1750.687500 
	C276.977051,1753.720947 315.020599,1743.105469 347.870300,1716.391235 
	C371.012634,1697.571045 383.667023,1673.094360 385.605286,1643.277344 
	C386.602692,1627.934204 381.563171,1622.531250 366.412811,1622.013916 
	C364.415833,1621.945679 362.414734,1621.997192 360.415527,1621.997070 
	C349.753143,1621.996216 339.079193,1622.317017 328.430786,1621.931030 
	C305.243927,1621.090576 305.525146,1626.767700 302.542999,1642.465942 
	C299.914062,1656.305298 291.946869,1665.876953 278.941315,1671.187866 
	C263.368439,1677.547363 247.360611,1678.566162 230.998337,1674.828979 
	C203.972610,1668.656128 190.966385,1650.826294 190.500900,1624.127319 
	C189.873703,1588.152588 189.997482,1552.153931 190.513916,1516.175781 
	C190.728485,1501.227539 195.526886,1487.924438 207.476212,1477.282227 
	C227.480499,1459.466187 267.975800,1461.284302 283.981750,1471.551514 
	C289.980591,1475.399414 294.958954,1481.026367 299.835480,1486.360474 
	C302.458679,1489.229858 304.095398,1493.095703 305.797058,1496.691650 
	C308.535706,1502.479248 312.878632,1505.075684 319.277557,1505.027100 
	C336.602875,1504.895386 353.932190,1504.813477 371.255310,1505.050049 
	C381.341370,1505.187622 386.619476,1500.151367 385.306183,1489.088257 
	C381.240387,1454.838379 364.044037,1428.584961 334.075470,1411.411133 
	C295.364960,1389.227417 253.860413,1384.982422 208.943863,1393.995239 
M2572.959229,1431.904663 
	C2570.365723,1425.069824 2567.837402,1418.209351 2565.162109,1411.406738 
	C2561.629150,1402.422974 2554.963623,1397.406128 2545.319336,1397.266113 
	C2527.998535,1397.014648 2510.671143,1397.051392 2493.348389,1397.197632 
	C2482.778320,1397.286865 2475.893799,1402.760132 2472.417236,1412.666992 
	C2471.647461,1414.860474 2470.762207,1417.013306 2469.953857,1419.193604 
	C2441.747314,1495.251587 2413.536133,1571.307983 2385.342773,1647.370728 
	C2375.526855,1673.853027 2365.655029,1700.315308 2356.008301,1726.859131 
	C2351.737305,1738.610107 2354.877930,1742.919067 2367.346680,1742.980713 
	C2384.674561,1743.066528 2402.002686,1743.023438 2419.330811,1743.000610 
	C2435.454834,1742.979370 2437.795898,1741.276245 2443.035645,1725.964478 
	C2443.358643,1725.021118 2443.664551,1724.072266 2443.979492,1723.126221 
	C2466.743652,1654.723511 2489.499268,1586.317993 2512.301758,1517.927979 
	C2513.303467,1514.923706 2514.734863,1512.062744 2516.700684,1507.388550 
	C2520.187500,1516.913818 2523.149414,1524.554443 2525.794189,1532.303345 
	C2544.698242,1587.686523 2563.516113,1643.098999 2582.414551,1698.484253 
	C2586.282959,1709.821899 2590.286865,1721.115601 2594.402100,1732.366089 
	C2596.303711,1737.564087 2599.367676,1742.391846 2605.475098,1742.475952 
	C2629.118896,1742.801758 2652.771973,1742.934204 2676.414062,1742.609375 
	C2682.074219,1742.531616 2684.284912,1738.602173 2683.530273,1732.809937 
	C2683.276367,1730.860962 2682.599854,1728.939331 2681.918701,1727.077637 
	C2665.700195,1682.752197 2649.531250,1638.408203 2633.193359,1594.126709 
	C2613.406982,1540.498047 2593.473633,1486.923584 2572.959229,1431.904663 
M1607.677002,1509.264771 
	C1600.953369,1490.838989 1594.307373,1472.384399 1587.481079,1453.996826 
	C1582.275879,1439.976074 1576.915405,1426.011719 1571.481689,1412.077759 
	C1568.214355,1403.699219 1562.559204,1397.690674 1553.054443,1397.575073 
	C1534.093628,1397.344604 1515.124268,1397.469238 1496.163330,1397.763550 
	C1487.925659,1397.891235 1482.638794,1402.849121 1479.551880,1410.142090 
	C1476.314697,1417.790039 1473.175293,1425.489014 1470.296997,1433.277954 
	C1443.907349,1504.688477 1417.584717,1576.123657 1391.240601,1647.551025 
	C1381.474243,1674.030640 1371.568848,1700.460205 1361.996338,1727.009766 
	C1357.735474,1738.827881 1360.858765,1742.920654 1373.501099,1742.983276 
	C1389.827515,1743.064209 1406.154541,1743.012573 1422.481323,1743.006470 
	C1442.447876,1742.999146 1443.653320,1742.096680 1450.012695,1722.980591 
	C1472.766968,1654.581421 1495.525635,1586.183838 1518.331177,1517.801758 
	C1519.328369,1514.811646 1520.802856,1511.980591 1522.618408,1507.768311 
	C1524.017334,1511.038452 1524.893921,1512.772095 1525.517944,1514.592041 
	C1542.339844,1563.651245 1559.126953,1612.722168 1575.940430,1661.784302 
	C1583.592407,1684.112915 1591.180054,1706.464478 1599.007935,1728.731567 
	C1603.248901,1740.795532 1606.353638,1742.925537 1618.674072,1742.979980 
	C1637.999268,1743.065430 1657.325195,1743.003540 1676.650757,1742.998657 
	C1677.983154,1742.998413 1679.326538,1743.055542 1680.646240,1742.913696 
	C1688.435425,1742.076050 1691.006714,1738.367920 1689.147949,1730.640381 
	C1688.838379,1729.353271 1688.302734,1728.118408 1687.843994,1726.869629 
	C1677.066650,1697.527466 1666.306152,1668.179077 1655.500122,1638.847534 
	C1639.763062,1596.131348 1623.992920,1553.427490 1607.677002,1509.264771 
M1948.970215,1472.008545 
	C1955.634277,1472.006104 1962.301636,1472.135376 1968.961670,1471.969849 
	C1978.685669,1471.728394 1982.844360,1467.789307 1983.590332,1458.124512 
	C1983.871704,1454.479858 1983.677490,1450.797607 1983.677368,1447.132446 
	C1983.677124,1435.470337 1983.887329,1423.802612 1983.591309,1412.147827 
	C1983.343262,1402.374634 1980.121094,1398.938110 1970.873535,1397.759644 
	C1966.929077,1397.257080 1962.925537,1397.006226 1958.948608,1397.004028 
	C1883.644409,1396.960938 1808.340332,1396.971436 1733.036133,1396.976562 
	C1730.370972,1396.976685 1727.693237,1396.881104 1725.042725,1397.094971 
	C1712.524658,1398.105591 1708.676270,1401.937134 1708.404663,1414.673218 
	C1708.113403,1428.328491 1708.089478,1442.000488 1708.413696,1455.654175 
	C1708.708130,1468.052246 1713.112549,1471.969360 1725.801880,1471.995117 
	C1748.126465,1472.040527 1770.451172,1472.008423 1792.775879,1472.008789 
	C1796.315796,1472.008789 1799.855713,1472.008789 1804.313965,1472.008789 
	C1804.313965,1477.625122 1804.313965,1481.890747 1804.313965,1486.156250 
	C1804.314453,1564.459229 1804.298950,1642.762207 1804.361816,1721.065186 
	C1804.364990,1725.007202 1804.622803,1729.045532 1805.499023,1732.870239 
	C1807.303345,1740.745728 1809.953491,1742.790771 1817.836914,1742.972778 
	C1824.497559,1743.126465 1831.164429,1743.014771 1837.828491,1743.014893 
	C1849.157471,1743.015015 1860.487183,1743.099243 1871.815063,1742.984375 
	C1884.284180,1742.857910 1887.610107,1739.574219 1888.270508,1726.996094 
	C1888.427612,1724.004883 1888.334717,1720.999878 1888.334717,1718.001221 
	C1888.337158,1640.364624 1888.331299,1562.728027 1888.351685,1485.091431 
	C1888.352783,1480.912231 1888.569580,1476.733032 1888.701172,1472.008545 
	C1909.033447,1472.008545 1928.006836,1472.008545 1948.970215,1472.008545 
M742.328857,1423.265869 
	C742.337952,1434.262695 742.079102,1445.268188 742.434753,1456.253784 
	C742.762268,1466.371338 747.315674,1470.646362 757.320618,1470.953857 
	C763.313599,1471.138062 769.318787,1470.901978 775.313904,1471.045654 
	C779.818909,1471.153564 784.316650,1471.565186 789.025391,1471.854370 
	C789.025391,1538.488037 789.025391,1603.972778 789.025391,1670.280640 
	C785.225403,1670.540894 781.991943,1670.913696 778.754333,1670.954224 
	C770.757690,1671.054321 762.752563,1670.803589 754.762939,1671.063599 
	C745.683044,1671.359253 742.171936,1674.204590 741.928040,1682.881470 
	C741.478760,1698.862061 741.484070,1714.872070 741.901611,1730.854004 
	C742.132080,1739.674194 745.547058,1742.395386 754.499512,1742.971558 
	C755.495667,1743.035645 756.498352,1743.005127 757.498047,1743.005127 
	C806.818176,1743.005371 856.138428,1743.040894 905.458435,1742.975830 
	C916.855591,1742.960815 921.194336,1739.736084 921.500244,1729.855225 
	C921.974365,1714.541260 921.923706,1699.192871 921.490662,1683.876221 
	C921.253235,1675.479126 916.608765,1671.427490 907.934143,1671.097412 
	C899.614502,1670.780396 891.273254,1671.074585 882.944336,1670.931885 
	C880.099548,1670.883301 877.263428,1670.324585 874.665466,1670.026611 
	C872.403625,1653.137207 873.259766,1478.705566 875.780457,1471.011963 
	C880.134155,1471.011963 884.771301,1471.026123 889.408264,1471.008545 
	C895.406189,1470.985718 901.427063,1471.254395 907.396118,1470.820801 
	C915.015686,1470.267334 919.354370,1466.695557 919.488342,1460.082153 
	C919.832458,1443.094482 919.843506,1426.089722 919.472717,1409.103149 
	C919.327637,1402.458740 915.637451,1399.089844 908.853455,1398.023193 
	C904.601440,1397.354614 900.252686,1397.027344 895.946533,1397.020264 
	C852.958130,1396.949341 809.969543,1396.957642 766.981018,1396.984741 
	C744.534485,1396.998779 742.350342,1399.195679 742.328857,1423.265869 
M554.999146,1743.006104 
	C597.654602,1743.003296 640.310120,1743.044678 682.965454,1742.971802 
	C696.290894,1742.948975 699.419495,1739.876099 699.616821,1726.444458 
	C699.822388,1712.451172 699.865295,1698.448486 699.587097,1684.457642 
	C699.373352,1673.707886 694.979004,1669.568848 684.206360,1669.046631 
	C681.546143,1668.917725 678.875427,1668.995728 676.209534,1668.995605 
	C632.887573,1668.992676 589.565674,1669.009644 546.243774,1668.962524 
	C542.370911,1668.958374 538.498535,1668.545166 533.668030,1668.266724 
	C533.668030,1663.069580 533.668091,1658.812012 533.668030,1654.554443 
	C533.667847,1576.908203 533.689575,1499.261841 533.612549,1421.615601 
	C533.607971,1417.008667 532.837524,1412.399536 532.374817,1407.796387 
	C531.737244,1401.454102 527.741089,1398.488281 521.838074,1397.715332 
	C518.550476,1397.284424 515.216492,1397.035034 511.901520,1397.015137 
	C498.905396,1396.936646 485.908508,1396.968140 472.911957,1396.984375 
	C452.491455,1397.009766 449.677216,1399.714722 449.671509,1419.894287 
	C449.643066,1520.534424 449.652466,1621.174683 449.685394,1721.814819 
	C449.686615,1725.468872 449.743652,1729.178711 450.351898,1732.764526 
	C451.395874,1738.919067 454.816193,1742.035156 461.033752,1742.777222 
	C463.996277,1743.130859 467.023132,1742.994385 470.020905,1742.995850 
	C497.680298,1743.009644 525.339722,1743.005005 554.999146,1743.006104 
z"/>
<path fill="#00958E" opacity="1.000000" stroke="none" 
	d="
M1136.757080,340.672516 
	C1149.376221,318.675354 1161.737183,297.372498 1173.701294,275.848999 
	C1176.921753,270.055389 1181.214355,265.902344 1186.819946,262.669189 
	C1241.552002,231.101669 1296.249512,199.474396 1350.965576,167.879074 
	C1371.701172,155.905502 1392.572754,144.160614 1413.126953,131.884094 
	C1418.233032,128.834335 1421.541504,130.587906 1425.799438,133.068069 
	C1479.548950,164.376648 1533.385498,195.535355 1587.192139,226.745850 
	C1655.945068,266.625916 1724.691284,306.517487 1793.435791,346.411865 
	C1794.584717,347.078583 1795.676392,347.844360 1797.202881,348.826599 
	C1797.202881,393.203949 1797.202881,437.758636 1797.202881,483.158447 
	C1795.178101,482.464355 1793.345337,482.143494 1791.828857,481.271942 
	C1730.414429,445.975342 1668.927734,410.802673 1607.687256,375.206238 
	C1582.145386,360.359894 1557.279907,344.354034 1531.848633,329.312103 
	C1497.226807,308.834412 1462.300171,288.872406 1427.662109,268.421936 
	C1422.936523,265.631866 1419.734985,265.936737 1415.043701,268.664276 
	C1361.000366,300.084869 1306.791870,331.221497 1252.609619,362.402832 
	C1201.290649,391.936401 1149.951294,421.434479 1098.619629,450.945862 
	C1089.109253,456.413513 1079.602905,461.888245 1070.068604,467.313751 
	C1068.511108,468.200043 1066.817505,468.847015 1063.948120,468.356384 
	C1088.082153,425.998932 1112.216064,383.641449 1136.757080,340.672516 
z"/>
<path fill="#00958E" opacity="1.000000" stroke="none" 
	d="
M1630.130859,1129.890869 
	C1588.038696,1105.531250 1546.573364,1081.545410 1505.164673,1057.462402 
	C1450.240234,1025.518677 1395.371826,993.478821 1340.437012,961.553101 
	C1336.361206,959.184387 1334.199585,956.481567 1334.227051,951.341248 
	C1334.446899,910.352417 1334.368896,869.362061 1334.409912,828.372131 
	C1334.410767,827.430359 1334.738159,826.488831 1335.154663,824.248230 
	C1344.454102,829.427917 1353.368408,834.234131 1362.131958,839.300842 
	C1411.368164,867.767456 1460.556152,896.317383 1509.783813,924.798950 
	C1561.025513,954.445862 1612.289673,984.053894 1663.552368,1013.664490 
	C1678.519165,1022.309631 1693.646484,1030.688232 1708.419067,1039.652100 
	C1713.057739,1042.466797 1716.543579,1042.542603 1721.161377,1039.834595 
	C1760.744995,1016.622009 1800.453735,993.622559 1840.111938,970.536804 
	C1880.066772,947.278564 1920.006226,923.993835 1959.953247,900.722290 
	C1991.846924,882.142334 2023.734375,863.551331 2055.648926,845.007324 
	C2058.687500,843.241882 2061.900391,841.777344 2066.995605,839.167542 
	C2065.590820,842.490295 2065.160400,843.885559 2064.454346,845.123901 
	C2044.852783,879.501709 2025.311157,913.914185 2005.571777,948.212769 
	C1988.980835,977.040710 1972.246948,1005.787598 1955.313599,1034.414795 
	C1953.227051,1037.942139 1950.007690,1041.348999 1946.489990,1043.398315 
	C1883.258667,1080.236084 1819.906250,1116.866333 1756.564819,1153.515015 
	C1741.916138,1161.990601 1727.212280,1170.370850 1713.210571,1178.406494 
	C1685.203125,1162.033936 1657.993164,1146.127563 1630.130859,1129.890869 
z"/>
<path fill="#00958E" opacity="1.000000" stroke="none" 
	d="
M1341.148804,479.165253 
	C1309.582275,497.807953 1278.631958,516.051636 1247.707153,534.338501 
	C1221.942505,549.574097 1196.361938,565.130798 1170.355225,579.940186 
	C1163.567383,583.805542 1161.489380,588.162720 1161.502930,595.745605 
	C1161.733154,724.070740 1161.667603,852.396362 1161.667480,980.721924 
	C1161.667480,984.704407 1161.667480,988.686951 1161.667480,995.254700 
	C1158.814697,991.601440 1157.125366,989.894287 1155.963257,987.882568 
	C1134.499878,950.725891 1113.100220,913.532410 1091.685425,876.347534 
	C1077.577148,851.849548 1063.341553,827.423401 1049.487183,802.782654 
	C1047.324097,798.935547 1045.828979,794.117004 1045.818481,789.743408 
	C1045.607910,701.749268 1045.728760,613.754272 1045.515015,525.760193 
	C1045.499634,519.464478 1048.008179,516.204407 1053.054810,513.274658 
	C1099.377197,486.383636 1145.614868,459.346710 1191.857788,432.318726 
	C1242.115723,402.944031 1292.343506,373.517792 1342.602661,344.145020 
	C1367.302002,329.710052 1392.044312,315.348602 1416.762329,300.945435 
	C1421.155762,298.385376 1425.015503,296.606110 1430.483765,299.804718 
	C1466.638916,320.953003 1503.029419,341.699249 1540.827759,363.430023 
	C1507.449829,384.126831 1473.973389,402.227325 1441.245972,421.565735 
	C1408.316650,441.023407 1374.950684,459.742310 1341.148804,479.165253 
z"/>
<path fill="#00958E" opacity="1.000000" stroke="none" 
	d="
M1891.119263,771.171021 
	C1917.560669,754.986694 1943.385864,739.192810 1970.270264,722.751221 
	C1970.270264,587.229248 1970.270264,451.169250 1970.270264,315.109253 
	C1970.866699,314.942108 1971.463257,314.774933 1972.059692,314.607758 
	C1973.337280,316.303772 1974.811401,317.886566 1975.862915,319.712738 
	C1993.953003,351.128784 2011.959106,382.593140 2030.049194,414.009155 
	C2047.305298,443.976837 2064.544189,473.955231 2082.020264,503.794464 
	C2085.186035,509.199921 2086.429199,514.606934 2086.420898,520.800354 
	C2086.304443,607.787720 2086.226562,694.775696 2086.539307,781.762085 
	C2086.567383,789.570129 2083.946045,793.510925 2077.366943,797.320068 
	C2011.717773,835.330139 1946.272461,873.692017 1880.777954,911.968933 
	C1825.078857,944.520996 1769.362061,977.043091 1713.753784,1009.749512 
	C1709.437134,1012.288330 1706.184937,1012.358887 1701.890747,1009.838745 
	C1666.053833,988.806824 1630.097900,967.977234 1593.732056,946.827332 
	C1595.504639,943.057495 1599.126709,941.964600 1602.056519,940.290283 
	C1647.683838,914.215027 1693.191650,887.923462 1739.073242,862.302002 
	C1788.163818,834.888550 1835.621460,804.799438 1883.562378,775.495789 
	C1885.830200,774.109558 1888.187378,772.869629 1891.119263,771.171021 
z"/>
<path fill="#00968F" opacity="1.000000" stroke="none" 
	d="
M1306.332275,957.740479 
	C1304.272217,970.024414 1309.002808,976.233521 1319.299316,981.908936 
	C1380.445190,1015.612122 1441.123779,1050.164185 1501.902588,1084.531494 
	C1540.100952,1106.130737 1578.192627,1127.918701 1616.347778,1149.594482 
	C1628.481689,1156.487671 1640.676880,1163.272949 1652.811157,1170.165405 
	C1654.131348,1170.915283 1655.232422,1172.051025 1658.099243,1174.331665 
	C1652.928711,1174.630005 1649.736084,1174.973633 1646.543213,1174.974976 
	C1575.575195,1175.005249 1504.606934,1174.933716 1433.639282,1175.103027 
	C1427.033569,1175.118774 1421.378052,1173.502563 1415.725952,1170.267212 
	C1365.236206,1141.366943 1314.668335,1112.603516 1264.117065,1083.810669 
	C1242.168213,1071.309204 1220.201782,1058.838745 1198.251587,1046.339600 
	C1195.657593,1044.862427 1193.116211,1043.292603 1189.674438,1041.244385 
	C1189.674438,1037.932495 1189.674438,1034.346313 1189.674438,1030.760010 
	C1189.674438,890.822998 1189.746094,750.885803 1189.490112,610.949280 
	C1189.475220,602.854675 1192.065674,598.605042 1199.092529,594.679993 
	C1232.186890,576.193542 1264.917847,557.056274 1297.800049,538.188782 
	C1300.026123,536.911499 1302.429688,535.943054 1306.332275,534.073059 
	C1306.332275,675.912659 1306.332275,816.347839 1306.332275,957.740479 
z"/>
<path fill="#00968F" opacity="1.000000" stroke="none" 
	d="
M1942.325928,280.310120 
	C1942.325928,419.573151 1942.236328,557.876099 1942.535889,696.178284 
	C1942.555054,705.018616 1939.950928,709.690918 1932.140015,714.010864 
	C1899.828735,731.880798 1867.985229,750.595947 1835.954712,768.974365 
	C1833.142090,770.588257 1830.219971,772.011414 1825.667847,774.408081 
	C1825.667847,768.874512 1825.667847,764.721985 1825.667847,760.569519 
	C1825.667847,622.933289 1825.566772,485.296753 1825.883179,347.661224 
	C1825.905518,337.924896 1823.505737,332.224426 1814.556641,327.300446 
	C1774.937988,305.501495 1735.799438,282.830200 1696.477173,260.492035 
	C1646.458130,232.077042 1596.428467,203.680557 1546.405396,175.272324 
	C1525.302979,163.288193 1504.202393,151.300949 1483.113281,139.293579 
	C1481.402100,138.319229 1479.785889,137.177811 1476.635132,135.159241 
	C1480.132446,134.618835 1482.126831,134.042465 1484.121460,134.041199 
	C1556.772095,133.994568 1629.422974,133.928055 1702.072754,134.170486 
	C1706.775146,134.186157 1711.961670,135.762604 1716.092529,138.088165 
	C1769.117554,167.939255 1822.002686,198.038834 1874.897705,228.120422 
	C1897.150146,240.775513 1919.342651,253.536423 1942.325928,266.686066 
	C1942.325928,270.820343 1942.325928,275.085114 1942.325928,280.310120 
z"/>
<path fill="#00958E" opacity="1.000000" stroke="none" 
	d="
M988.373779,1730.765869 
	C988.340698,1624.908569 988.333862,1519.936279 988.329712,1414.964111 
	C988.329651,1412.964844 988.234131,1410.954590 988.403931,1408.968262 
	C989.040405,1401.525024 992.032043,1398.354248 999.530579,1397.248413 
	C1001.495239,1396.958496 1003.518982,1397.008057 1005.515686,1397.006104 
	C1021.844666,1396.989624 1038.177612,1397.216064 1054.501343,1396.921021 
	C1065.202271,1396.727783 1072.655640,1400.592896 1077.956543,1410.342896 
	C1094.946411,1441.592651 1112.480347,1472.546997 1129.831543,1503.600098 
	C1136.780029,1516.035522 1143.799072,1528.431519 1151.412598,1541.958740 
	C1153.825806,1538.188354 1155.894409,1535.286743 1157.628296,1532.197388 
	C1180.249756,1491.890259 1203.002075,1451.654419 1225.282837,1411.159424 
	C1230.746826,1401.228516 1238.072144,1396.625488 1249.338257,1396.899780 
	C1264.991455,1397.280884 1280.661499,1396.923340 1296.323364,1397.016479 
	C1310.279785,1397.099487 1313.638794,1400.326660 1313.644287,1413.965088 
	C1313.686523,1517.937622 1313.669067,1621.910034 1313.662109,1725.882568 
	C1313.661987,1727.880005 1313.787842,1729.913696 1313.470825,1731.868286 
	C1312.293335,1739.132202 1308.901733,1742.713379 1301.512573,1742.831909 
	C1282.522827,1743.136230 1263.521973,1743.144775 1244.532104,1742.848511 
	C1236.558960,1742.724243 1233.232788,1739.200073 1232.319458,1731.250610 
	C1231.826782,1726.962158 1231.698730,1722.612427 1231.695190,1718.290161 
	C1231.654541,1668.303345 1231.669312,1618.316650 1231.669189,1568.329834 
	C1231.669189,1564.682007 1231.669189,1561.034180 1231.669189,1556.556519 
	C1227.118164,1558.248779 1226.235596,1562.100220 1224.589355,1564.949463 
	C1210.938354,1588.577393 1197.484131,1612.318848 1183.955322,1636.017456 
	C1182.471069,1638.617432 1180.937988,1641.192261 1179.346924,1643.728149 
	C1175.310181,1650.161865 1169.768921,1653.561523 1161.867798,1653.072266 
	C1155.892578,1652.702148 1149.821899,1652.492798 1143.888794,1653.116699 
	C1132.804443,1654.282349 1126.626099,1648.260132 1121.714233,1639.571655 
	C1114.017334,1625.956909 1106.177734,1612.422729 1098.361328,1598.875732 
	C1091.049316,1586.203247 1083.703003,1573.550537 1076.327759,1560.914795 
	C1075.591187,1559.652832 1074.548950,1558.569214 1071.676025,1557.810181 
	C1071.676025,1561.302979 1071.676147,1564.795776 1071.676147,1568.288574 
	C1071.675781,1618.941772 1071.676392,1669.595093 1071.672607,1720.248291 
	C1071.672363,1723.247314 1071.840820,1726.264526 1071.576782,1729.241943 
	C1070.687256,1739.276855 1067.023438,1742.863037 1057.032471,1742.947144 
	C1039.038452,1743.098755 1021.041504,1743.100098 1003.047607,1742.951172 
	C993.044739,1742.868408 991.460754,1741.446655 988.373779,1730.765869 
z"/>
<path fill="#00958E" opacity="1.000000" stroke="none" 
	d="
M2159.882324,1629.036499 
	C2159.726074,1610.151611 2159.617676,1592.156982 2159.693359,1574.163086 
	C2159.741455,1562.766479 2162.906006,1559.298096 2174.193604,1558.189453 
	C2178.157471,1557.800049 2182.187988,1557.902100 2186.180420,1558.024170 
	C2197.279541,1558.363647 2207.250244,1554.819458 2216.223145,1548.718750 
	C2230.115234,1539.273804 2236.634033,1526.003418 2234.058594,1509.207886 
	C2231.457764,1492.250000 2221.195557,1481.093628 2205.292725,1475.423340 
	C2199.733398,1473.440918 2193.602051,1472.263550 2187.707520,1472.163818 
	C2166.053711,1471.797363 2144.389404,1472.028564 2122.729248,1472.074463 
	C2121.461670,1472.077148 2120.194580,1472.428955 2117.666992,1472.806885 
	C2117.666992,1476.846069 2117.666992,1480.739014 2117.666992,1484.632080 
	C2117.666992,1563.609253 2117.667236,1642.586548 2117.664795,1721.563721 
	C2117.664551,1724.562744 2117.819580,1727.575562 2117.590088,1730.557983 
	C2116.939209,1739.022949 2113.501953,1742.757690 2105.060303,1742.869751 
	C2085.736328,1743.126587 2066.403564,1743.138428 2047.080444,1742.848022 
	C2039.191772,1742.729370 2036.049194,1738.917725 2035.692627,1730.791016 
	C2035.605103,1728.795166 2035.660767,1726.792725 2035.660767,1724.793335 
	C2035.659668,1622.156250 2035.656494,1519.519287 2035.662476,1416.882202 
	C2035.663452,1399.735229 2037.405273,1398.002441 2054.553955,1398.000244 
	C2101.207031,1397.994385 2147.861328,1397.827026 2194.512939,1398.084717 
	C2212.529785,1398.184204 2230.509277,1400.060913 2247.554443,1406.260254 
	C2283.086914,1419.183228 2305.110596,1444.410522 2313.825684,1481.187378 
	C2319.710449,1506.022217 2319.602783,1530.615601 2309.981201,1554.621460 
	C2298.702881,1582.761719 2279.067383,1603.113525 2251.834229,1616.244873 
	C2250.343262,1616.963745 2248.816406,1617.608887 2246.018555,1618.867798 
	C2249.447266,1624.295532 2252.531006,1629.553223 2255.973389,1634.564575 
	C2275.933838,1663.621948 2296.064209,1692.563232 2315.878662,1721.719360 
	C2318.171875,1725.093872 2319.758301,1729.476074 2320.106445,1733.525757 
	C2320.674072,1740.128174 2318.160889,1742.288574 2311.353027,1742.905151 
	C2309.367920,1743.085083 2307.356934,1742.996948 2305.357666,1742.997559 
	C2286.696533,1743.003052 2268.028809,1742.707153 2249.376465,1743.113403 
	C2238.458008,1743.351074 2230.014648,1739.871460 2223.874268,1730.654785 
	C2209.669678,1709.334839 2195.318604,1688.112427 2180.990723,1666.874756 
	C2176.528809,1660.261230 2171.549072,1653.959351 2167.555420,1647.080078 
	C2164.438477,1641.711304 2162.480713,1635.669678 2159.882324,1629.036499 
z"/>
<path fill="#00958E" opacity="1.000000" stroke="none" 
	d="
M3009.517334,1714.462891 
	C3012.495605,1719.704468 3015.752686,1724.097778 3017.460693,1729.027710 
	C3020.394531,1737.497070 3016.541992,1742.805542 3007.540283,1742.896851 
	C2985.216797,1743.123535 2962.889648,1743.022461 2940.564209,1742.949585 
	C2933.513428,1742.926636 2927.322754,1740.304321 2923.422119,1734.392578 
	C2914.821045,1721.357300 2906.420898,1708.175781 2898.367432,1694.795898 
	C2880.018799,1664.311768 2861.928467,1633.672363 2843.011963,1601.884399 
	C2840.127441,1604.432983 2837.645996,1606.362549 2835.474365,1608.593872 
	C2829.214600,1615.025635 2823.310791,1621.822021 2816.818359,1628.003418 
	C2812.111572,1632.484985 2810.183594,1637.417847 2810.242188,1643.907715 
	C2810.483154,1670.563232 2810.344238,1697.221924 2810.336914,1723.879517 
	C2810.336182,1726.544800 2810.507080,1729.236328 2810.203125,1731.870239 
	C2809.334473,1739.395874 2806.242188,1742.733521 2798.637451,1742.839233 
	C2778.981689,1743.112671 2759.317871,1743.095581 2739.661865,1742.836792 
	C2732.974854,1742.748779 2729.538086,1739.237793 2728.370361,1732.463989 
	C2727.809082,1729.208740 2727.680420,1725.846191 2727.679443,1722.531982 
	C2727.645508,1621.899658 2727.651855,1521.267456 2727.655518,1420.635132 
	C2727.655762,1418.302979 2727.592529,1415.963623 2727.744141,1413.639771 
	C2728.572021,1400.950562 2732.120361,1397.313110 2745.153320,1397.078003 
	C2761.142578,1396.789673 2777.141113,1397.025513 2793.135498,1396.996460 
	C2806.402832,1396.972412 2810.643311,1402.691162 2810.491211,1414.427490 
	C2810.059814,1447.743774 2810.341064,1481.069458 2810.341309,1514.391357 
	C2810.341553,1518.005615 2810.341309,1521.619995 2810.341309,1527.991211 
	C2816.666260,1521.494141 2821.466553,1516.841187 2825.955322,1511.905273 
	C2848.059570,1487.598389 2870.093018,1463.227539 2892.125488,1438.855469 
	C2900.584229,1429.498413 2909.229736,1420.293213 2917.319824,1410.625122 
	C2925.140137,1401.280151 2934.683594,1396.779663 2946.890625,1396.926392 
	C2968.213379,1397.182861 2989.541992,1396.935669 3010.867432,1397.037476 
	C3015.739990,1397.060669 3021.503662,1396.164917 3023.723145,1402.177490 
	C3025.861572,1407.970703 3022.459717,1412.280396 3018.674316,1416.360840 
	C2985.426270,1452.198730 2952.225586,1488.080933 2919.041016,1523.977661 
	C2914.110107,1529.311768 2909.336914,1534.791626 2904.064453,1540.680176 
	C2939.144531,1598.518555 2974.121826,1656.187256 3009.517334,1714.462891 
z"/>
<path fill="#00958E" opacity="1.000000" stroke="none" 
	d="
M209.776337,1393.902100 
	C253.860413,1384.982422 295.364960,1389.227417 334.075470,1411.411133 
	C364.044037,1428.584961 381.240387,1454.838379 385.306183,1489.088257 
	C386.619476,1500.151367 381.341370,1505.187622 371.255310,1505.050049 
	C353.932190,1504.813477 336.602875,1504.895386 319.277557,1505.027100 
	C312.878632,1505.075684 308.535706,1502.479248 305.797058,1496.691650 
	C304.095398,1493.095703 302.458679,1489.229858 299.835480,1486.360474 
	C294.958954,1481.026367 289.980591,1475.399414 283.981750,1471.551514 
	C267.975800,1461.284302 227.480499,1459.466187 207.476212,1477.282227 
	C195.526886,1487.924438 190.728485,1501.227539 190.513916,1516.175781 
	C189.997482,1552.153931 189.873703,1588.152588 190.500900,1624.127319 
	C190.966385,1650.826294 203.972610,1668.656128 230.998337,1674.828979 
	C247.360611,1678.566162 263.368439,1677.547363 278.941315,1671.187866 
	C291.946869,1665.876953 299.914062,1656.305298 302.542999,1642.465942 
	C305.525146,1626.767700 305.243927,1621.090576 328.430786,1621.931030 
	C339.079193,1622.317017 349.753143,1621.996216 360.415527,1621.997070 
	C362.414734,1621.997192 364.415833,1621.945679 366.412811,1622.013916 
	C381.563171,1622.531250 386.602692,1627.934204 385.605286,1643.277344 
	C383.667023,1673.094360 371.012634,1697.571045 347.870300,1716.391235 
	C315.020599,1743.105469 276.977051,1753.720947 235.177582,1750.687500 
	C202.279251,1748.300049 172.044998,1737.997192 146.328278,1716.552368 
	C121.422180,1695.783569 107.955147,1669.252441 107.740028,1636.668823 
	C107.447472,1592.355225 107.394035,1548.036133 107.750824,1503.723511 
	C108.029785,1469.077148 123.551056,1441.797729 150.458710,1420.765991 
	C167.765961,1407.237915 187.582047,1398.842163 209.776337,1393.902100 
z"/>
<path fill="#00958E" opacity="1.000000" stroke="none" 
	d="
M2573.281738,1432.615234 
	C2593.473633,1486.923584 2613.406982,1540.498047 2633.193359,1594.126709 
	C2649.531250,1638.408203 2665.700195,1682.752197 2681.918701,1727.077637 
	C2682.599854,1728.939331 2683.276367,1730.860962 2683.530273,1732.809937 
	C2684.284912,1738.602173 2682.074219,1742.531616 2676.414062,1742.609375 
	C2652.771973,1742.934204 2629.118896,1742.801758 2605.475098,1742.475952 
	C2599.367676,1742.391846 2596.303711,1737.564087 2594.402100,1732.366089 
	C2590.286865,1721.115601 2586.282959,1709.821899 2582.414551,1698.484253 
	C2563.516113,1643.098999 2544.698242,1587.686523 2525.794189,1532.303345 
	C2523.149414,1524.554443 2520.187500,1516.913818 2516.700684,1507.388550 
	C2514.734863,1512.062744 2513.303467,1514.923706 2512.301758,1517.927979 
	C2489.499268,1586.317993 2466.743652,1654.723511 2443.979492,1723.126221 
	C2443.664551,1724.072266 2443.358643,1725.021118 2443.035645,1725.964478 
	C2437.795898,1741.276245 2435.454834,1742.979370 2419.330811,1743.000610 
	C2402.002686,1743.023438 2384.674561,1743.066528 2367.346680,1742.980713 
	C2354.877930,1742.919067 2351.737305,1738.610107 2356.008301,1726.859131 
	C2365.655029,1700.315308 2375.526855,1673.853027 2385.342773,1647.370728 
	C2413.536133,1571.307983 2441.747314,1495.251587 2469.953857,1419.193604 
	C2470.762207,1417.013306 2471.647461,1414.860474 2472.417236,1412.666992 
	C2475.893799,1402.760132 2482.778320,1397.286865 2493.348389,1397.197632 
	C2510.671143,1397.051392 2527.998535,1397.014648 2545.319336,1397.266113 
	C2554.963623,1397.406128 2561.629150,1402.422974 2565.162109,1411.406738 
	C2567.837402,1418.209351 2570.365723,1425.069824 2573.281738,1432.615234 
z"/>
<path fill="#00958E" opacity="1.000000" stroke="none" 
	d="
M1607.957031,1509.991577 
	C1623.992920,1553.427490 1639.763062,1596.131348 1655.500122,1638.847534 
	C1666.306152,1668.179077 1677.066650,1697.527466 1687.843994,1726.869629 
	C1688.302734,1728.118408 1688.838379,1729.353271 1689.147949,1730.640381 
	C1691.006714,1738.367920 1688.435425,1742.076050 1680.646240,1742.913696 
	C1679.326538,1743.055542 1677.983154,1742.998413 1676.650757,1742.998657 
	C1657.325195,1743.003540 1637.999268,1743.065430 1618.674072,1742.979980 
	C1606.353638,1742.925537 1603.248901,1740.795532 1599.007935,1728.731567 
	C1591.180054,1706.464478 1583.592407,1684.112915 1575.940430,1661.784302 
	C1559.126953,1612.722168 1542.339844,1563.651245 1525.517944,1514.592041 
	C1524.893921,1512.772095 1524.017334,1511.038452 1522.618408,1507.768311 
	C1520.802856,1511.980591 1519.328369,1514.811646 1518.331177,1517.801758 
	C1495.525635,1586.183838 1472.766968,1654.581421 1450.012695,1722.980591 
	C1443.653320,1742.096680 1442.447876,1742.999146 1422.481323,1743.006470 
	C1406.154541,1743.012573 1389.827515,1743.064209 1373.501099,1742.983276 
	C1360.858765,1742.920654 1357.735474,1738.827881 1361.996338,1727.009766 
	C1371.568848,1700.460205 1381.474243,1674.030640 1391.240601,1647.551025 
	C1417.584717,1576.123657 1443.907349,1504.688477 1470.296997,1433.277954 
	C1473.175293,1425.489014 1476.314697,1417.790039 1479.551880,1410.142090 
	C1482.638794,1402.849121 1487.925659,1397.891235 1496.163330,1397.763550 
	C1515.124268,1397.469238 1534.093628,1397.344604 1553.054443,1397.575073 
	C1562.559204,1397.690674 1568.214355,1403.699219 1571.481689,1412.077759 
	C1576.915405,1426.011719 1582.275879,1439.976074 1587.481079,1453.996826 
	C1594.307373,1472.384399 1600.953369,1490.838989 1607.957031,1509.991577 
z"/>
<path fill="#00948E" opacity="1.000000" stroke="none" 
	d="
M1947.975220,1472.008545 
	C1928.006836,1472.008545 1909.033447,1472.008545 1888.701172,1472.008545 
	C1888.569580,1476.733032 1888.352783,1480.912231 1888.351685,1485.091431 
	C1888.331299,1562.728027 1888.337158,1640.364624 1888.334717,1718.001221 
	C1888.334717,1720.999878 1888.427612,1724.004883 1888.270508,1726.996094 
	C1887.610107,1739.574219 1884.284180,1742.857910 1871.815063,1742.984375 
	C1860.487183,1743.099243 1849.157471,1743.015015 1837.828491,1743.014893 
	C1831.164429,1743.014771 1824.497559,1743.126465 1817.836914,1742.972778 
	C1809.953491,1742.790771 1807.303345,1740.745728 1805.499023,1732.870239 
	C1804.622803,1729.045532 1804.364990,1725.007202 1804.361816,1721.065186 
	C1804.298950,1642.762207 1804.314453,1564.459229 1804.313965,1486.156250 
	C1804.313965,1481.890747 1804.313965,1477.625122 1804.313965,1472.008789 
	C1799.855713,1472.008789 1796.315796,1472.008789 1792.775879,1472.008789 
	C1770.451172,1472.008423 1748.126465,1472.040527 1725.801880,1471.995117 
	C1713.112549,1471.969360 1708.708130,1468.052246 1708.413696,1455.654175 
	C1708.089478,1442.000488 1708.113403,1428.328491 1708.404663,1414.673218 
	C1708.676270,1401.937134 1712.524658,1398.105591 1725.042725,1397.094971 
	C1727.693237,1396.881104 1730.370972,1396.976685 1733.036133,1396.976562 
	C1808.340332,1396.971436 1883.644409,1396.960938 1958.948608,1397.004028 
	C1962.925537,1397.006226 1966.929077,1397.257080 1970.873535,1397.759644 
	C1980.121094,1398.938110 1983.343262,1402.374634 1983.591309,1412.147827 
	C1983.887329,1423.802612 1983.677124,1435.470337 1983.677368,1447.132446 
	C1983.677490,1450.797607 1983.871704,1454.479858 1983.590332,1458.124512 
	C1982.844360,1467.789307 1978.685669,1471.728394 1968.961670,1471.969849 
	C1962.301636,1472.135376 1955.634277,1472.006104 1947.975220,1472.008545 
z"/>
<path fill="#00958E" opacity="1.000000" stroke="none" 
	d="
M742.328857,1422.310791 
	C742.350342,1399.195679 744.534485,1396.998779 766.981018,1396.984741 
	C809.969543,1396.957642 852.958130,1396.949341 895.946533,1397.020264 
	C900.252686,1397.027344 904.601440,1397.354614 908.853455,1398.023193 
	C915.637451,1399.089844 919.327637,1402.458740 919.472717,1409.103149 
	C919.843506,1426.089722 919.832458,1443.094482 919.488342,1460.082153 
	C919.354370,1466.695557 915.015686,1470.267334 907.396118,1470.820801 
	C901.427063,1471.254395 895.406189,1470.985718 889.408264,1471.008545 
	C884.771301,1471.026123 880.134155,1471.011963 875.780457,1471.011963 
	C873.259766,1478.705566 872.403625,1653.137207 874.665466,1670.026611 
	C877.263428,1670.324585 880.099548,1670.883301 882.944336,1670.931885 
	C891.273254,1671.074585 899.614502,1670.780396 907.934143,1671.097412 
	C916.608765,1671.427490 921.253235,1675.479126 921.490662,1683.876221 
	C921.923706,1699.192871 921.974365,1714.541260 921.500244,1729.855225 
	C921.194336,1739.736084 916.855591,1742.960815 905.458435,1742.975830 
	C856.138428,1743.040894 806.818176,1743.005371 757.498047,1743.005127 
	C756.498352,1743.005127 755.495667,1743.035645 754.499512,1742.971558 
	C745.547058,1742.395386 742.132080,1739.674194 741.901611,1730.854004 
	C741.484070,1714.872070 741.478760,1698.862061 741.928040,1682.881470 
	C742.171936,1674.204590 745.683044,1671.359253 754.762939,1671.063599 
	C762.752563,1670.803589 770.757690,1671.054321 778.754333,1670.954224 
	C781.991943,1670.913696 785.225403,1670.540894 789.025391,1670.280640 
	C789.025391,1603.972778 789.025391,1538.488037 789.025391,1471.854370 
	C784.316650,1471.565186 779.818909,1471.153564 775.313904,1471.045654 
	C769.318787,1470.901978 763.313599,1471.138062 757.320618,1470.953857 
	C747.315674,1470.646362 742.762268,1466.371338 742.434753,1456.253784 
	C742.079102,1445.268188 742.337952,1434.262695 742.328857,1422.310791 
z"/>
<path fill="#00958E" opacity="1.000000" stroke="none" 
	d="
M553.999146,1743.005981 
	C525.339722,1743.005005 497.680298,1743.009644 470.020905,1742.995850 
	C467.023132,1742.994385 463.996277,1743.130859 461.033752,1742.777222 
	C454.816193,1742.035156 451.395874,1738.919067 450.351898,1732.764526 
	C449.743652,1729.178711 449.686615,1725.468872 449.685394,1721.814819 
	C449.652466,1621.174683 449.643066,1520.534424 449.671509,1419.894287 
	C449.677216,1399.714722 452.491455,1397.009766 472.911957,1396.984375 
	C485.908508,1396.968140 498.905396,1396.936646 511.901520,1397.015137 
	C515.216492,1397.035034 518.550476,1397.284424 521.838074,1397.715332 
	C527.741089,1398.488281 531.737244,1401.454102 532.374817,1407.796387 
	C532.837524,1412.399536 533.607971,1417.008667 533.612549,1421.615601 
	C533.689575,1499.261841 533.667847,1576.908203 533.668030,1654.554443 
	C533.668091,1658.812012 533.668030,1663.069580 533.668030,1668.266724 
	C538.498535,1668.545166 542.370911,1668.958374 546.243774,1668.962524 
	C589.565674,1669.009644 632.887573,1668.992676 676.209534,1668.995605 
	C678.875427,1668.995728 681.546143,1668.917725 684.206360,1669.046631 
	C694.979004,1669.568848 699.373352,1673.707886 699.587097,1684.457642 
	C699.865295,1698.448486 699.822388,1712.451172 699.616821,1726.444458 
	C699.419495,1739.876099 696.290894,1742.948975 682.965454,1742.971802 
	C640.310120,1743.044678 597.654602,1743.003296 553.999146,1743.005981 
z"/>
</svg>