<svg version="1.1" id="Layer_1" xmlns="http://www.w3.org/2000/svg" xmlns:xlink="http://www.w3.org/1999/xlink" x="0px" y="0px"
	 width="100%" viewBox="0 0 3125 1875" enable-background="new 0 0 3125 1875" xml:space="preserve">
<path fill="#000000" opacity="1.000000" stroke="none" 
	d="
M2008.000000,1878.000000 
	C1338.666626,1878.000000 670.333313,1878.000000 2.000000,1878.000000 
	C2.000000,1252.666626 2.000000,627.333313 2.000000,2.000000 
	C1044.000000,2.000000 2086.000000,2.000000 3128.000000,2.000000 
	C3128.000000,627.333313 3128.000000,1252.666626 3128.000000,1878.000000 
	C2755.000000,1878.000000 2382.000000,1878.000000 2008.000000,1878.000000 
M2864.152344,1470.135498 
	C2864.152344,1470.135498 2864.073486,1470.717773 2863.366211,1470.849121 
	C2862.902832,1471.122314 2862.689453,1471.527222 2862.148438,1472.135864 
	C2862.148438,1472.135864 2862.073730,1472.713013 2861.364014,1472.846313 
	C2860.898926,1473.120239 2860.683594,1473.526489 2860.147217,1474.128662 
	C2860.147217,1474.128662 2860.077393,1474.698730 2859.359863,1474.834717 
	C2858.890625,1475.111938 2858.672607,1475.522583 2858.140381,1476.128174 
	C2858.140381,1476.128174 2858.078857,1476.694092 2857.463623,1476.740234 
	C2857.011230,1477.018677 2856.942871,1477.371582 2856.171631,1478.782349 
	C2852.748291,1482.829834 2849.324951,1486.877319 2845.263428,1490.978638 
	C2844.825195,1491.212158 2844.652100,1491.572998 2844.155273,1492.142700 
	C2844.155273,1492.142700 2844.072021,1492.731079 2843.369873,1492.856323 
	C2842.908691,1493.126587 2842.698975,1493.528320 2842.154541,1494.141235 
	C2842.154541,1494.141235 2842.072998,1494.727295 2841.368408,1494.854004 
	C2840.906006,1495.125610 2840.694824,1495.528809 2840.152832,1496.139038 
	C2840.152832,1496.139038 2840.075439,1496.721069 2839.429688,1496.788208 
	C2838.997803,1497.040649 2838.830322,1497.412354 2837.916748,1498.706055 
	C2837.258789,1499.796631 2836.601074,1500.887085 2834.678955,1502.418335 
	C2827.129639,1510.583862 2819.580322,1518.749390 2810.343750,1528.739990 
	C2810.343750,1523.122803 2810.343750,1519.939087 2810.343750,1516.755249 
	C2810.343750,1482.780029 2809.995361,1448.799316 2810.525391,1414.832397 
	C2810.720459,1402.327515 2805.908936,1396.883057 2792.547119,1397.202148 
	C2778.565186,1397.535889 2764.569336,1397.282104 2750.579590,1397.286865 
	C2730.131348,1397.293823 2727.687256,1399.708374 2727.684570,1420.235474 
	C2727.671387,1520.495605 2727.672119,1620.755859 2727.704346,1721.015991 
	C2727.705566,1724.664062 2727.850098,1728.345093 2728.345215,1731.953369 
	C2729.406982,1739.689331 2733.053955,1743.072510 2740.810303,1743.205200 
	C2752.132080,1743.398926 2763.459717,1743.263184 2774.784668,1743.266724 
	C2782.445801,1743.269165 2790.114502,1743.483521 2797.766113,1743.214111 
	C2806.329346,1742.912720 2809.681885,1739.484131 2810.306396,1731.009277 
	C2810.477295,1728.689819 2810.343018,1726.347900 2810.343262,1724.016235 
	C2810.343994,1697.035889 2810.468750,1670.054565 2810.243896,1643.076172 
	C2810.195801,1637.313843 2811.842285,1633.072510 2815.998535,1628.975586 
	C2824.259033,1620.832642 2831.933594,1612.095215 2841.036377,1603.179810 
	C2842.643311,1604.387695 2844.816406,1605.256348 2845.773926,1606.853516 
	C2864.634033,1638.314331 2883.340576,1669.867310 2902.108154,1701.383545 
	C2907.554199,1710.528809 2912.885010,1719.752930 2918.653320,1728.692871 
	C2923.631592,1736.408691 2929.825439,1743.124146 2939.904297,1743.221191 
	C2962.901611,1743.442505 2985.903564,1743.423950 3008.901367,1743.228271 
	C3015.572021,1743.171509 3019.336914,1738.554565 3018.177979,1731.977783 
	C3017.563721,1728.491333 3015.906250,1725.022217 3014.052734,1721.947510 
	C3001.187500,1700.603760 2988.242920,1679.306152 2975.139893,1658.107422 
	C2955.793945,1626.807983 2936.273926,1595.615967 2916.876953,1564.347900 
	C2912.019287,1556.517090 2907.346924,1548.571411 2902.393066,1540.353027 
	C2910.758057,1532.038574 2919.120605,1524.179565 2926.962646,1515.831909 
	C2940.617188,1501.296631 2953.899170,1486.411987 2967.432129,1471.760986 
	C2984.800293,1452.957886 3002.250732,1434.230347 3019.692627,1415.495239 
	C3023.296631,1411.623657 3025.850586,1407.266357 3023.802490,1401.973511 
	C3021.651611,1396.414185 3016.326904,1397.283813 3011.761230,1397.271118 
	C2990.094971,1397.210815 2968.421143,1397.602173 2946.765381,1397.128906 
	C2934.374756,1396.858276 2925.135742,1401.614380 2917.279297,1410.822266 
	C2908.228760,1421.429443 2898.535889,1431.485718 2889.270264,1441.912842 
	C2881.377441,1450.795288 2873.694824,1459.864624 2865.271973,1468.946533 
	C2864.833740,1469.191895 2864.654785,1469.562622 2864.152344,1470.135498 
M2562.040039,1406.147827 
	C2562.040039,1406.147827 2561.616211,1406.030884 2561.576416,1405.067505 
	C2561.270508,1404.416870 2560.758301,1404.075317 2559.652832,1402.813110 
	C2557.040527,1401.446655 2554.427979,1400.080078 2550.640869,1398.121826 
	C2549.766357,1398.169556 2548.891602,1398.217285 2546.527344,1397.543213 
	C2528.424072,1397.665771 2510.320557,1397.788330 2490.615967,1397.736816 
	C2482.984131,1398.212036 2477.528809,1401.972412 2474.218994,1408.796875 
	C2472.777832,1411.768433 2471.462402,1414.815918 2470.312988,1417.911865 
	C2462.733643,1438.325928 2455.153809,1458.740234 2447.693848,1479.197998 
	C2440.348389,1499.341919 2433.144531,1519.537476 2425.009277,1540.147705 
	C2424.416748,1540.644409 2424.301514,1541.234253 2424.073730,1543.170776 
	C2423.966309,1544.085083 2423.859131,1544.999512 2422.609375,1546.754517 
	C2406.738037,1589.614380 2390.856445,1632.470459 2375.000488,1675.336060 
	C2368.565918,1692.731201 2362.061768,1710.102295 2355.829102,1727.569946 
	C2351.812500,1738.825806 2354.904053,1743.192261 2366.532715,1743.233398 
	C2385.158936,1743.299194 2403.785889,1743.310547 2422.411865,1743.219604 
	C2424.951904,1743.207153 2427.488037,1742.472656 2431.483887,1742.108032 
	C2438.370361,1739.816528 2440.298096,1733.874146 2442.324707,1727.805908 
	C2466.101562,1656.605225 2489.945068,1585.426880 2513.804443,1514.253784 
	C2514.492676,1512.200439 2515.544922,1510.269043 2516.744629,1507.565918 
	C2522.641357,1523.776855 2528.159912,1538.947998 2533.763916,1555.673706 
	C2548.149658,1597.755493 2562.519775,1639.842651 2576.928955,1681.916382 
	C2582.520752,1698.244385 2588.270752,1714.518433 2593.806885,1730.865112 
	C2596.126465,1737.713989 2600.006104,1743.017578 2607.687500,1743.116333 
	C2630.003662,1743.403564 2652.328369,1743.451660 2674.643799,1743.163452 
	C2682.151855,1743.066528 2685.080078,1738.328979 2683.318359,1730.921753 
	C2683.013428,1729.640137 2682.446777,1728.419922 2681.988037,1727.176025 
	C2663.163330,1676.131348 2644.455811,1625.042725 2625.439941,1574.069214 
	C2619.540527,1558.254517 2612.013184,1543.016602 2606.668701,1527.033813 
	C2601.193359,1510.660156 2594.835693,1494.670044 2588.782959,1478.535278 
	C2583.187500,1463.620117 2578.840088,1448.240723 2573.463379,1433.237671 
	C2570.354736,1424.563232 2566.298828,1416.228394 2562.859863,1407.172119 
	C2562.699219,1406.728394 2562.383545,1406.527222 2562.040039,1406.147827 
M1898.923096,936.308105 
	C1898.423828,936.802429 1897.924438,937.296753 1896.104492,938.107483 
	C1890.736816,941.411621 1885.369141,944.715820 1878.600952,948.168823 
	C1841.690063,969.610291 1804.743042,990.990051 1767.885498,1012.522766 
	C1752.486450,1021.519165 1737.277344,1030.840942 1720.854736,1040.020020 
	C1720.010376,1040.723389 1719.165894,1041.426758 1718.102539,1042.047119 
	C1718.102539,1042.047119 1718.018066,1042.265503 1716.442749,1042.389404 
	C1714.009521,1041.613647 1711.342529,1041.245117 1709.177612,1040.001953 
	C1666.874634,1015.711426 1624.653198,991.278687 1582.362671,966.966309 
	C1564.254639,956.556213 1546.027588,946.353149 1527.088623,934.945251 
	C1463.159790,898.065674 1399.364624,860.950928 1334.600098,823.887939 
	C1334.600098,869.467407 1334.600098,913.368469 1334.600098,957.696960 
	C1337.119507,959.233398 1339.623169,960.818359 1342.180664,962.311218 
	C1390.911743,990.758667 1439.628906,1019.230469 1488.402954,1047.604248 
	C1498.134766,1053.265747 1508.089233,1058.544678 1518.741333,1065.114990 
	C1554.209595,1085.723022 1589.765137,1106.182739 1625.118530,1126.986084 
	C1653.312378,1143.576538 1681.285400,1160.543213 1709.279175,1177.470825 
	C1712.312866,1179.305298 1714.158569,1178.454102 1717.147949,1176.035400 
	C1717.459839,1175.833252 1717.771606,1175.631104 1718.983154,1175.438843 
	C1719.595459,1175.181396 1719.945435,1174.723511 1721.406128,1173.755493 
	C1730.780640,1168.376831 1740.167114,1163.018799 1749.527466,1157.615723 
	C1775.075195,1142.868408 1800.648926,1128.165527 1826.140869,1113.322266 
	C1844.150757,1102.835449 1862.043945,1092.148193 1881.313232,1081.195679 
	C1896.857056,1072.246948 1912.112915,1062.741455 1928.026367,1054.507080 
	C1943.727417,1046.382690 1957.635986,1037.019043 1964.155762,1019.609314 
	C1964.955200,1017.474548 1966.636841,1015.683899 1967.794678,1013.667725 
	C2000.058960,957.483765 2032.311035,901.292786 2064.545654,845.091858 
	C2065.372314,843.650452 2065.981445,842.084534 2067.528564,838.802063 
	C2064.148438,840.458923 2062.661133,841.080872 2061.277344,841.881897 
	C2030.513062,859.689880 1999.708618,877.429565 1969.022583,895.371399 
	C1947.246338,908.103882 1925.632935,921.114746 1902.833740,934.008850 
	C1902.002930,934.704224 1901.172119,935.399597 1900.095703,935.999512 
	C1900.095703,935.999512 1900.010742,936.249023 1898.923096,936.308105 
M690.954773,1742.693115 
	C691.361755,1742.610840 691.598145,1742.364136 693.148987,1741.689941 
	C698.876404,1739.476685 699.426147,1734.110352 699.544373,1729.387451 
	C699.932007,1713.899414 699.942200,1698.389648 699.572937,1682.900879 
	C699.426514,1676.761230 697.272095,1671.140137 689.363708,1669.511841 
	C688.701355,1669.589966 688.039001,1669.668213 685.621033,1669.316162 
	C665.364868,1669.289673 645.108459,1669.194946 624.852539,1669.255615 
	C603.941528,1669.318237 583.031006,1669.532104 560.632568,1669.002930 
	C552.060913,1669.002930 543.489258,1669.002930 533.735229,1669.002930 
	C533.735229,1663.780151 533.735291,1659.880127 533.735229,1655.979980 
	C533.735168,1577.666138 533.739502,1499.352417 533.719849,1421.038574 
	C533.718994,1417.715698 533.849548,1414.334351 533.311218,1411.080811 
	C531.630554,1400.922485 527.891602,1397.649658 517.499878,1396.797729 
	C515.512939,1396.635010 513.502808,1396.747314 511.503357,1396.748047 
	C498.839844,1396.752808 486.176361,1396.758789 473.512848,1396.769897 
	C452.382477,1396.788452 449.708740,1399.368774 449.705261,1420.135498 
	C449.688446,1520.776978 449.693909,1621.418579 449.716919,1722.060059 
	C449.717682,1725.385010 449.729034,1728.747437 450.194244,1732.027222 
	C451.141449,1738.705566 454.491486,1741.961548 461.152405,1742.977661 
	C463.114746,1743.277100 465.138611,1743.241577 467.134369,1743.243408 
	C495.460632,1743.267944 523.786987,1743.296509 552.113098,1743.242310 
	C554.737671,1743.237305 557.361145,1742.675903 561.778625,1742.959473 
	C602.752014,1743.049561 643.725403,1743.152466 684.698853,1743.190430 
	C686.656311,1743.192261 688.614319,1742.620361 690.954773,1742.693115 
M1135.868774,1653.105713 
	C1146.899902,1652.838135 1157.931152,1652.570557 1170.009033,1651.194946 
	C1172.820923,1648.646362 1176.238159,1646.512939 1178.326172,1643.468018 
	C1183.641968,1635.716431 1188.584473,1627.684692 1193.279907,1619.536743 
	C1205.722656,1597.945312 1217.955933,1576.233154 1231.322021,1555.748657 
	C1231.443359,1559.391235 1231.668945,1563.033813 1231.670654,1566.676392 
	C1231.693848,1616.828491 1231.674438,1666.980469 1231.710815,1717.132568 
	C1231.713379,1720.765503 1232.067017,1724.398193 1232.114136,1729.023926 
	C1232.267822,1729.320801 1232.421631,1729.617798 1232.404419,1731.336548 
	C1232.558838,1732.269897 1232.713135,1733.203247 1232.643799,1735.026001 
	C1232.838013,1735.658813 1233.245239,1736.090942 1234.099243,1737.624878 
	C1236.595581,1739.144897 1239.091797,1740.664917 1243.080566,1742.983154 
	C1262.036255,1743.070801 1280.991943,1743.196411 1299.947632,1743.187378 
	C1301.839966,1743.186401 1303.731934,1742.366943 1307.119751,1741.740234 
	C1314.122437,1738.178345 1313.684326,1731.639038 1313.684570,1725.289551 
	C1313.688354,1621.732788 1313.690308,1518.176147 1313.670898,1414.619385 
	C1313.670410,1411.968018 1313.904297,1409.178833 1313.189575,1406.695435 
	C1311.880615,1402.146240 1309.998291,1397.718750 1302.554077,1397.177734 
	C1288.456177,1397.100952 1274.357788,1396.919678 1260.260742,1396.995728 
	C1254.087280,1397.029053 1247.916870,1397.588257 1240.457764,1397.792725 
	C1238.965332,1398.522217 1237.472900,1399.251709 1234.613037,1400.134521 
	C1231.661865,1403.626587 1228.068481,1406.755493 1225.858154,1410.666260 
	C1202.350220,1452.261230 1179.075439,1493.987671 1155.673950,1535.642822 
	C1154.493286,1537.744629 1152.740112,1539.524780 1150.576172,1542.333862 
	C1145.203247,1532.331787 1140.531860,1523.377075 1135.617065,1514.558228 
	C1130.629272,1505.608643 1125.401367,1496.792847 1120.100342,1486.478882 
	C1105.905151,1460.937744 1091.508179,1435.505737 1077.620483,1409.798462 
	C1072.541016,1400.395996 1065.153198,1396.737671 1054.902100,1396.868286 
	C1038.255859,1397.080200 1021.604919,1396.929321 1004.955933,1396.959961 
	C1002.963379,1396.963623 1000.933411,1396.932983 998.985413,1397.280884 
	C991.736206,1398.574951 988.842468,1401.915649 988.368774,1409.484009 
	C988.202637,1412.137695 988.330261,1414.809937 988.330261,1417.473755 
	C988.329529,1518.366577 988.329651,1619.259521 988.329773,1720.152344 
	C988.329773,1723.149170 988.249207,1726.148682 988.347046,1729.142334 
	C988.678650,1739.289307 992.098328,1742.980347 1002.364807,1743.113770 
	C1020.675659,1743.351440 1038.992920,1743.329590 1057.305054,1743.153320 
	C1066.704346,1743.062866 1070.581299,1739.324951 1071.599854,1730.090210 
	C1071.890259,1727.456787 1071.696777,1724.768188 1071.697021,1722.104858 
	C1071.700439,1670.493042 1071.699829,1618.881104 1071.700073,1567.269287 
	C1071.700073,1563.834473 1071.700073,1560.399658 1071.700073,1556.964844 
	C1074.614258,1558.314819 1075.663696,1559.850220 1076.614502,1561.444580 
	C1086.287842,1577.665649 1095.945312,1593.896362 1105.912476,1611.532959 
	C1111.242920,1620.968872 1116.423218,1630.494019 1121.962891,1639.805420 
	C1125.049316,1644.993042 1127.700684,1650.889526 1135.868774,1653.105713 
M1680.675537,417.135651 
	C1719.276123,439.446899 1757.876831,461.758179 1797.240234,484.510345 
	C1797.240234,438.212494 1797.240234,393.417480 1797.240234,348.564911 
	C1784.830078,341.438202 1772.778320,334.415161 1760.625122,327.572571 
	C1751.863281,322.639343 1742.867554,318.117676 1734.151978,313.106476 
	C1720.860596,305.464325 1707.721436,297.557709 1693.699341,288.636200 
	C1667.896240,273.643524 1642.127441,258.591370 1616.276978,243.680786 
	C1601.095825,234.924271 1585.784668,226.393127 1569.709106,216.635056 
	C1548.501465,204.347366 1527.368652,191.928101 1506.065674,179.808197 
	C1483.701294,167.084625 1461.140259,154.707443 1438.741577,142.043808 
	C1433.172974,138.895493 1427.899048,135.226196 1421.559814,130.600433 
	C1417.471069,128.123917 1414.620972,131.270035 1411.616577,132.987091 
	C1396.966064,141.359650 1382.386230,149.856369 1367.803101,158.346283 
	C1331.207886,179.650940 1294.624268,200.975540 1256.673584,222.521652 
	C1237.729004,233.517303 1219.168213,245.258972 1199.716187,255.268585 
	C1184.613892,263.039917 1172.880249,273.080292 1166.355835,288.925049 
	C1164.976562,292.274933 1162.766357,295.281158 1160.954956,298.454803 
	C1129.513062,353.541473 1098.067749,408.626190 1066.661255,463.733063 
	C1065.657593,465.494141 1065.059937,467.486481 1063.708984,470.721863 
	C1066.403198,469.345764 1067.592285,468.802155 1068.720703,468.152985 
	C1121.661377,437.695190 1174.616699,407.262421 1227.515869,376.732697 
	C1237.814941,370.788849 1247.894043,364.464020 1259.165283,358.025391 
	C1259.476440,357.814056 1259.787476,357.602692 1260.972778,357.359070 
	C1261.532959,357.094696 1261.912598,356.669220 1263.499756,355.869904 
	C1282.491211,344.952728 1301.508911,334.080627 1320.468384,323.108154 
	C1351.756958,305.000427 1383.008179,286.827850 1415.333618,268.315582 
	C1415.583130,268.037628 1415.832520,267.759705 1416.956909,267.392731 
	C1417.520874,267.124207 1417.895752,266.691803 1419.620483,265.941620 
	C1422.351074,266.833252 1425.337769,267.280670 1427.772949,268.684723 
	C1454.171997,283.906189 1480.453125,299.331696 1506.831055,314.590149 
	C1525.148560,325.186127 1543.566406,335.608643 1562.788452,347.174530 
	C1582.235474,359.063507 1601.535034,371.202911 1621.171387,382.770477 
	C1640.534546,394.177094 1660.238647,405.004852 1680.675537,417.135651 
M1347.999023,341.995087 
	C1347.999023,341.995087 1347.978027,341.997192 1346.561646,342.086273 
	C1307.882324,364.617645 1269.173340,387.098297 1230.539673,409.707794 
	C1216.945190,417.663696 1203.535278,425.935089 1188.663208,434.321442 
	C1143.576416,460.594788 1098.564453,486.998230 1053.315308,512.988892 
	C1047.153687,516.528137 1045.556519,520.670471 1045.571167,527.327881 
	C1045.761963,614.295044 1045.736450,701.262756 1045.613037,788.230164 
	C1045.604614,794.114990 1046.998779,799.091370 1049.955811,804.205322 
	C1082.074951,859.755066 1113.967041,915.435974 1145.967773,971.054260 
	C1150.504150,978.938599 1155.289185,986.679810 1159.959106,994.487244 
	C1160.539551,994.293396 1161.119995,994.099548 1161.700439,993.905640 
	C1161.700439,990.701355 1161.700439,987.497070 1161.700439,984.292786 
	C1161.700439,915.318542 1161.700439,846.344238 1161.700439,777.369995 
	C1161.700439,717.392395 1161.865967,657.413757 1161.514282,597.438232 
	C1161.463989,588.864319 1163.066772,583.166809 1171.525269,579.358948 
	C1178.989624,575.998657 1185.603027,570.748413 1193.708374,565.546753 
	C1207.846802,557.459717 1222.083984,549.539551 1236.104858,541.253418 
	C1273.523560,519.139404 1310.849243,496.868073 1349.575684,474.208740 
	C1364.424805,465.682831 1379.285645,457.177094 1394.120972,448.627289 
	C1440.979980,421.621796 1487.833984,394.607605 1534.666016,367.555389 
	C1536.549316,366.467468 1538.189575,364.958923 1540.480591,363.243988 
	C1501.223511,340.705780 1462.742798,318.613342 1424.514282,296.665619 
	C1417.576538,300.661285 1411.515869,304.072052 1405.532227,307.612732 
	C1386.988525,318.585419 1368.474121,329.607452 1349.102783,340.718689 
	C1348.565796,340.989594 1348.202026,341.410309 1347.999023,341.995087 
M2111.229004,1741.944580 
	C2118.116211,1738.307373 2117.691406,1731.840454 2117.689941,1725.469727 
	C2117.670898,1644.603149 2117.677246,1563.736572 2117.677490,1482.869995 
	C2117.677490,1479.386597 2117.677734,1475.903198 2117.677734,1471.711426 
	C2134.776367,1471.711426 2150.379150,1471.711426 2167.818848,1472.014404 
	C2179.428223,1472.243408 2191.120361,1471.184937 2202.513184,1474.555664 
	C2220.399414,1479.847900 2232.121826,1492.572266 2234.206543,1510.244263 
	C2236.375488,1528.632568 2228.015625,1543.058594 2211.235352,1551.806396 
	C2203.111328,1556.041504 2194.661865,1558.579834 2185.385742,1558.124512 
	C2181.406494,1557.928955 2177.358398,1557.883423 2173.418457,1558.380127 
	C2162.603027,1559.743530 2159.763672,1563.019897 2159.711426,1573.927002 
	C2159.632080,1590.584351 2159.807617,1607.243408 2159.639648,1623.899414 
	C2159.559326,1631.863892 2161.803223,1638.887329 2166.251221,1645.440796 
	C2185.472168,1673.760376 2204.801270,1702.010620 2223.628174,1730.590942 
	C2229.534912,1739.557617 2237.275879,1743.272217 2247.530273,1743.250244 
	C2267.519531,1743.207397 2287.508789,1743.296753 2307.497559,1743.205566 
	C2310.052246,1743.193970 2312.603027,1742.430664 2316.175293,1740.832275 
	C2321.586426,1734.704224 2321.915283,1732.553711 2316.637695,1724.697266 
	C2308.844727,1713.096191 2300.607666,1701.794067 2292.603760,1690.333862 
	C2287.437500,1682.936401 2282.350098,1675.483521 2276.829834,1666.793579 
	C2266.025879,1650.919434 2255.222168,1635.045166 2244.423340,1619.178467 
	C2255.915527,1613.609741 2266.471680,1606.990601 2276.665283,1599.250000 
	C2290.816895,1588.503784 2300.693359,1575.156006 2308.032715,1559.406860 
	C2318.807373,1536.287231 2320.194336,1512.005493 2315.173828,1487.574707 
	C2312.675293,1475.415649 2308.646729,1462.992554 2302.547363,1452.258911 
	C2283.277344,1418.346924 2252.638672,1402.262329 2212.717285,1399.228394 
	C2201.762695,1398.824707 2190.809814,1398.141968 2179.853271,1398.072998 
	C2153.544922,1397.907227 2127.234619,1398.028809 2100.925293,1398.035156 
	C2083.607666,1398.039429 2066.288818,1397.929932 2048.972900,1398.095093 
	C2039.083496,1398.189453 2035.951050,1401.519653 2035.665894,1411.382812 
	C2035.608154,1413.379272 2035.656006,1415.378906 2035.656006,1417.377075 
	C2035.655884,1456.674683 2035.656006,1495.972290 2035.656250,1535.269897 
	C2035.656616,1599.877808 2035.639160,1664.485840 2035.674927,1729.093750 
	C2035.680786,1739.757812 2038.792480,1743.109619 2049.068359,1743.194458 
	C2067.384033,1743.345703 2085.701660,1743.288940 2104.017822,1743.204712 
	C2105.920410,1743.196045 2107.819092,1742.414673 2111.229004,1741.944580 
M1920.142944,754.037354 
	C1920.142944,754.037354 1920.078857,754.245239 1918.700806,754.411926 
	C1903.974243,763.411987 1889.275757,772.458557 1874.515503,781.403137 
	C1835.682983,804.935547 1796.823486,828.423645 1756.578857,852.141724 
	C1751.163818,855.324036 1745.787354,858.574402 1740.327515,861.677917 
	C1693.921875,888.056824 1647.495728,914.399475 1601.098999,940.793945 
	C1598.436768,942.308472 1595.978027,944.180725 1592.758057,946.331543 
	C1630.069824,968.021118 1666.213501,988.936096 1702.214111,1010.094482 
	C1706.178833,1012.424622 1709.121826,1012.710022 1713.055176,1010.258972 
	C1723.183716,1003.947266 1733.665405,998.202454 1743.794678,991.892090 
	C1749.440430,988.374878 1754.664551,984.180786 1761.588989,980.186279 
	C1771.698730,974.757629 1781.939697,969.557739 1791.893066,963.856201 
	C1818.885010,948.394531 1845.821411,932.833130 1872.648193,917.087036 
	C1888.588013,907.731140 1904.279175,897.951477 1921.179199,888.071167 
	C1921.487671,887.851929 1921.796021,887.632690 1922.986206,887.426880 
	C1923.569580,887.175415 1923.940186,886.742004 1925.492310,885.933044 
	C1979.024048,854.681091 2032.555908,823.429138 2085.780273,792.356628 
	C2086.037109,790.704651 2086.319336,789.735168 2086.319580,788.765564 
	C2086.346191,698.135010 2086.384033,607.504395 2086.231689,516.874084 
	C2086.226074,513.444214 2084.913574,509.724030 2083.266113,506.644073 
	C2078.259277,497.284760 2072.796875,488.168732 2067.497314,478.966339 
	C2036.996826,426.003448 2006.497437,373.039856 1975.968628,320.093231 
	C1974.724487,317.935547 1973.189209,315.945709 1971.789551,313.877716 
	C1971.287598,314.019714 1970.785767,314.161682 1970.283813,314.303680 
	C1970.283813,450.666779 1970.283813,587.029846 1970.283813,722.590149 
	C1954.150879,732.758423 1939.023071,742.293152 1922.805298,752.014587 
	C1921.984131,752.718262 1921.162964,753.421997 1920.142944,754.037354 
M1553.157104,1397.751099 
	C1553.157104,1397.751099 1552.195557,1397.909546 1550.703247,1397.201660 
	C1535.710571,1397.148804 1520.717896,1397.026489 1505.725342,1397.060547 
	C1487.458374,1397.102173 1482.488037,1400.663696 1476.267090,1417.841309 
	C1476.042358,1418.462036 1476.056519,1419.169922 1475.827393,1419.788330 
	C1451.590332,1485.176392 1427.340820,1550.560059 1403.091675,1615.943481 
	C1389.467163,1652.679199 1375.783325,1689.392944 1362.247314,1726.161133 
	C1357.506714,1739.038086 1360.514893,1743.113770 1374.347534,1743.145508 
	C1391.675171,1743.185181 1409.002808,1743.175049 1426.330444,1743.173096 
	C1440.989624,1743.171509 1443.792603,1741.187866 1448.534180,1727.000000 
	C1471.756592,1657.512207 1494.937988,1588.010620 1518.160034,1518.522705 
	C1519.285889,1515.154053 1520.659058,1511.868164 1522.424438,1507.202881 
	C1524.668701,1512.496948 1526.293335,1516.329590 1527.960449,1521.668701 
	C1546.035034,1574.403931 1564.102661,1627.141357 1582.187866,1679.872925 
	C1587.894165,1696.510498 1593.477173,1713.193115 1599.438721,1729.739136 
	C1603.501343,1741.014771 1606.826782,1743.132202 1618.654053,1743.176514 
	C1636.303589,1743.242676 1653.953369,1743.208618 1671.603027,1743.213867 
	C1674.600098,1743.214844 1677.617065,1743.419678 1680.590210,1743.148926 
	C1688.213501,1742.455078 1691.046265,1738.396606 1689.296631,1730.923218 
	C1688.995972,1729.638916 1688.450195,1728.409912 1687.991333,1727.165039 
	C1664.468750,1663.352417 1641.054199,1599.499512 1617.358887,1535.751099 
	C1608.818848,1512.775513 1599.559814,1490.067749 1590.725830,1467.200317 
	C1588.398438,1461.175537 1586.532349,1454.973877 1584.280273,1448.918213 
	C1579.267822,1435.440430 1574.071045,1422.031006 1569.110596,1408.534424 
	C1567.505615,1404.167236 1564.881958,1401.138672 1559.349854,1398.929199 
	C1557.568970,1398.695312 1555.788086,1398.461426 1553.157104,1397.751099 
M1881.238647,1741.733887 
	C1887.622192,1735.989868 1888.336914,1728.375488 1888.335449,1720.479370 
	C1888.320312,1641.487183 1888.326172,1562.495117 1888.326172,1483.502930 
	C1888.326172,1479.946777 1888.326294,1476.390625 1888.326294,1472.052734 
	C1892.694458,1472.052734 1895.964844,1472.052002 1899.235229,1472.052856 
	C1922.232910,1472.059082 1945.230957,1472.127197 1968.228271,1472.044678 
	C1978.857056,1472.006470 1983.319458,1468.275269 1983.577759,1458.146606 
	C1983.976929,1442.491821 1983.950562,1426.812622 1983.577881,1411.156494 
	C1983.355957,1401.836548 1979.607666,1398.713989 1968.458374,1397.243042 
	C1888.217529,1397.220703 1807.976685,1397.198364 1727.735840,1397.178101 
	C1726.737061,1397.177856 1725.733887,1397.147461 1724.740356,1397.226562 
	C1712.777588,1398.177124 1708.755127,1401.964844 1708.450806,1413.963867 
	C1708.096313,1427.939209 1708.132690,1441.935303 1708.437988,1455.912842 
	C1708.702271,1468.014648 1712.963013,1471.979370 1724.838745,1472.009155 
	C1747.812622,1472.067017 1770.786865,1472.039551 1793.760864,1472.046997 
	C1797.001709,1472.048096 1800.242554,1472.047119 1804.339478,1472.047119 
	C1804.339478,1476.559692 1804.339600,1480.137817 1804.339600,1483.716064 
	C1804.339600,1562.959839 1804.335571,1642.203735 1804.353882,1721.447510 
	C1804.354614,1724.767334 1804.159546,1728.161865 1804.755005,1731.392700 
	C1806.378906,1740.203003 1809.968262,1743.128052 1819.053955,1743.178467 
	C1837.033081,1743.278320 1855.013428,1743.265991 1872.992554,1743.173828 
	C1875.229858,1743.162354 1877.463257,1742.385864 1881.238647,1741.733887 
M245.801651,1463.921997 
	C254.011856,1464.684570 262.381409,1464.713623 270.379913,1466.450928 
	C276.362946,1467.750366 282.163300,1470.748047 287.517883,1473.888184 
	C296.134583,1478.941528 301.419708,1487.101440 305.418518,1496.038696 
	C308.164459,1502.176025 312.542358,1505.329102 319.373566,1505.295166 
	C336.692474,1505.208984 354.012115,1505.288208 371.331482,1505.274292 
	C381.545258,1505.266113 386.728210,1500.226685 385.299927,1489.231812 
	C383.907410,1478.512329 380.850159,1467.686890 376.609924,1457.722412 
	C365.786102,1432.286621 345.890289,1415.508789 321.100861,1404.510864 
	C297.909149,1394.221802 273.334076,1389.912231 246.143570,1389.799438 
	C210.764420,1389.737183 178.405457,1399.497192 150.218231,1420.999634 
	C123.989479,1441.008179 108.490784,1467.639771 107.934547,1501.020020 
	C107.162964,1547.324097 107.361366,1593.655151 107.894516,1639.966064 
	C108.198212,1666.345581 118.642860,1689.021729 136.992188,1707.946655 
	C158.097443,1729.714111 184.382156,1741.826172 213.639999,1747.748779 
	C225.582916,1750.166382 237.703644,1753.039551 251.919174,1750.628662 
	C281.620880,1750.947632 308.748077,1742.141724 333.768585,1726.728638 
	C355.008514,1713.644531 371.618591,1696.042358 379.658508,1672.075562 
	C383.186890,1661.557739 384.829559,1650.115479 385.434387,1638.990112 
	C386.049530,1627.674194 381.054749,1623.239624 370.225037,1622.157593 
	C367.585419,1621.893799 364.905792,1621.992188 362.244507,1621.989380 
	C350.594391,1621.977417 338.944244,1621.988892 327.294128,1621.992676 
	C307.697327,1621.998901 306.672699,1622.565918 302.802979,1641.504150 
	C299.653168,1656.918823 291.102600,1667.491821 276.142426,1672.078125 
	C267.653168,1674.680664 258.718475,1675.830200 248.303284,1676.996338 
	C245.000061,1676.679932 241.685059,1676.455200 238.395447,1676.032715 
	C207.817581,1672.105713 191.091980,1654.520264 190.460587,1623.889038 
	C189.721176,1588.016846 189.946457,1552.113037 190.441162,1516.232300 
	C190.663391,1500.113525 196.036652,1485.694580 209.617249,1475.460693 
	C219.817535,1467.773804 231.807602,1465.442871 245.801651,1463.921997 
M1712.552002,269.605591 
	C1747.178223,289.314911 1781.661377,309.283386 1816.547241,328.521973 
	C1823.801025,332.522217 1825.839600,337.033875 1825.827148,344.897034 
	C1825.606323,484.147766 1825.667114,623.398926 1825.667114,762.650024 
	C1825.667114,766.196106 1825.667236,769.742126 1825.667236,775.153076 
	C1838.153931,767.767151 1849.181885,761.244019 1861.324585,754.364624 
	C1861.580566,754.070312 1861.836670,753.776001 1862.977539,753.409973 
	C1863.551636,753.144287 1863.929077,752.708313 1865.549194,751.952759 
	C1866.459839,751.062927 1867.229004,749.918457 1868.302612,749.321472 
	C1884.886475,740.099548 1901.528809,730.982544 1918.116089,721.766846 
	C1926.212891,717.268555 1934.224365,712.616882 1942.115967,708.124756 
	C1942.115967,560.574341 1942.115967,413.724304 1942.115967,267.214386 
	C1916.512695,252.685242 1891.228882,238.337387 1865.098999,222.925018 
	C1851.576904,215.216370 1838.076294,207.469559 1824.528442,199.806381 
	C1787.902344,179.089264 1751.256104,158.407730 1713.522827,136.514114 
	C1709.032959,135.684677 1704.544434,134.141006 1700.052979,134.132599 
	C1628.725220,133.999191 1557.396851,134.062500 1486.068726,134.080704 
	C1483.234009,134.081436 1480.399292,134.080795 1477.564575,134.080795 
	C1479.053833,136.791748 1480.848267,138.047226 1482.743652,139.125549 
	C1539.338135,171.324265 1595.915771,203.552597 1652.559937,235.663513 
	C1672.182495,246.787369 1691.974243,257.612793 1712.552002,269.605591 
M1382.779419,1151.143555 
	C1394.845947,1158.057739 1406.798340,1165.184692 1419.049072,1171.755371 
	C1422.673340,1173.699097 1427.135864,1175.016357 1431.219238,1175.028931 
	C1504.872559,1175.256958 1578.526611,1175.247559 1652.180542,1175.232178 
	C1653.803589,1175.231812 1655.426392,1174.566040 1658.711914,1173.846680 
	C1655.510376,1171.877075 1653.892456,1170.807739 1652.208008,1169.856079 
	C1590.872314,1135.201538 1529.564819,1100.496704 1468.164917,1065.956543 
	C1453.089722,1057.476074 1437.602783,1049.728882 1422.503784,1041.289062 
	C1410.806519,1034.750610 1399.419067,1027.657715 1386.805176,1019.874390 
	C1359.989258,1004.666992 1333.173462,989.459534 1306.132080,974.124268 
	C1306.132080,827.427917 1306.132080,681.318298 1306.132080,533.338928 
	C1291.812988,541.748535 1278.763550,549.412415 1264.357056,557.583862 
	C1239.579712,571.777649 1214.802368,585.971436 1190.003906,600.177368 
	C1190.003906,747.507324 1190.003906,894.344666 1190.003906,1042.066650 
	C1213.837036,1055.286743 1237.914551,1068.642212 1262.787354,1083.115967 
	C1289.229858,1098.125854 1315.642578,1113.188477 1342.127441,1128.123291 
	C1355.325684,1135.565796 1368.655762,1142.774292 1382.779419,1151.143555 
M873.712891,1585.000000 
	C873.712891,1547.450073 873.712891,1509.900146 873.712891,1471.763794 
	C878.017761,1471.557739 881.253662,1471.301880 884.491882,1471.267944 
	C891.819580,1471.191162 899.164490,1471.523804 906.472656,1471.133057 
	C914.801819,1470.687500 919.358582,1467.196289 919.529785,1460.228516 
	C919.946899,1443.250244 919.904785,1426.250488 919.569641,1409.268799 
	C919.438110,1402.599854 915.821777,1399.147339 909.148499,1398.024780 
	C904.912415,1397.312256 900.574951,1396.882324 896.282166,1396.875732 
	C852.643616,1396.809326 809.004761,1396.822876 765.366272,1396.923462 
	C761.073730,1396.933350 756.773743,1397.593384 752.493774,1398.093262 
	C747.677612,1398.655640 744.479370,1401.185059 743.656982,1406.141479 
	C743.118835,1409.384644 742.430664,1412.654541 742.391296,1415.919434 
	C742.242859,1428.243042 742.280396,1440.569824 742.346375,1452.894897 
	C742.422729,1467.156494 746.467773,1471.126343 760.853027,1471.182251 
	C770.088013,1471.218140 779.323303,1471.188965 789.109131,1471.188965 
	C789.109131,1538.150391 789.109131,1603.920898 789.109131,1670.886353 
	C785.301147,1670.886353 782.066101,1670.883179 778.830994,1670.886963 
	C770.503113,1670.896606 762.163513,1670.637817 753.850830,1670.999390 
	C746.021240,1671.340088 742.290710,1674.349609 742.093262,1681.769775 
	C741.641846,1698.738159 741.704529,1715.734619 742.141846,1732.704590 
	C742.308228,1739.161743 745.845703,1742.037109 752.306396,1743.012329 
	C754.265625,1743.307983 756.294556,1743.180176 758.291565,1743.181274 
	C806.927063,1743.209106 855.562561,1743.255249 904.198059,1743.231812 
	C918.275391,1743.225098 921.634216,1739.725830 921.712830,1725.243896 
	C921.777893,1713.251953 921.763733,1701.259277 921.715637,1689.267090 
	C921.657532,1674.781006 917.799255,1670.906738 903.426941,1670.848511 
	C893.869690,1670.809814 884.312195,1670.841187 873.712708,1670.841187 
	C873.712708,1642.126099 873.712708,1614.563110 873.712891,1585.000000 
z"/>
<path fill="#A6DAD7" opacity="1.000000" stroke="none" 
	d="
M1922.104492,887.413452 
	C1921.796021,887.632690 1921.487671,887.851929 1920.607666,887.255005 
	C1920.050415,842.374329 1920.064575,798.309814 1920.078857,754.245239 
	C1920.078857,754.245239 1920.142944,754.037354 1920.812866,754.022583 
	C1922.286987,753.281250 1923.091187,752.554565 1923.895386,751.827881 
	C1939.023071,742.293152 1954.150879,732.758423 1970.283813,722.590149 
	C1970.283813,587.029846 1970.283813,450.666779 1970.283813,314.303680 
	C1970.785767,314.161682 1971.287598,314.019714 1971.789551,313.877716 
	C1973.189209,315.945709 1974.724487,317.935547 1975.968628,320.093231 
	C2006.497437,373.039856 2036.996826,426.003448 2067.497314,478.966339 
	C2072.796875,488.168732 2078.259277,497.284760 2083.266113,506.644073 
	C2084.913574,509.724030 2086.226074,513.444214 2086.231689,516.874084 
	C2086.384033,607.504395 2086.346191,698.135010 2086.319580,788.765564 
	C2086.319336,789.735168 2086.037109,790.704651 2085.780273,792.356628 
	C2032.555908,823.429138 1979.024048,854.681091 1924.383667,886.097900 
	C1922.728516,886.487244 1922.338379,886.870850 1922.104492,887.413452 
z"/>
<path fill="#57B9B4" opacity="1.000000" stroke="none" 
	d="
M1192.592163,566.332642 
	C1185.603027,570.748413 1178.989624,575.998657 1171.525269,579.358948 
	C1163.066772,583.166809 1161.463989,588.864319 1161.514282,597.438232 
	C1161.865967,657.413757 1161.700439,717.392395 1161.700439,777.369995 
	C1161.700439,846.344238 1161.700439,915.318542 1161.700439,984.292786 
	C1161.700439,987.497070 1161.700439,990.701355 1161.700439,993.905640 
	C1161.119995,994.099548 1160.539551,994.293396 1159.959106,994.487244 
	C1155.289185,986.679810 1150.504150,978.938599 1145.967773,971.054260 
	C1113.967041,915.435974 1082.074951,859.755066 1049.955811,804.205322 
	C1046.998779,799.091370 1045.604614,794.114990 1045.613037,788.230164 
	C1045.736450,701.262756 1045.761963,614.295044 1045.571167,527.327881 
	C1045.556519,520.670471 1047.153687,516.528137 1053.315308,512.988892 
	C1098.564453,486.998230 1143.576416,460.594788 1189.322266,435.034180 
	C1189.322876,439.317688 1188.105469,442.886261 1188.091919,446.459473 
	C1187.950806,483.400635 1188.025879,520.342590 1187.970947,557.284180 
	C1187.965088,561.200562 1188.523804,564.604065 1192.592163,566.332642 
z"/>
<path fill="#3FAEA9" opacity="1.000000" stroke="none" 
	d="
M873.712769,1586.000000 
	C873.712708,1614.563110 873.712708,1642.126099 873.712708,1670.841187 
	C884.312195,1670.841187 893.869690,1670.809814 903.426941,1670.848511 
	C917.799255,1670.906738 921.657532,1674.781006 921.715637,1689.267090 
	C921.763733,1701.259277 921.777893,1713.251953 921.712830,1725.243896 
	C921.634216,1739.725830 918.275391,1743.225098 904.198059,1743.231812 
	C855.562561,1743.255249 806.927063,1743.209106 758.291565,1743.181274 
	C756.294556,1743.180176 754.265625,1743.307983 752.306396,1743.012329 
	C745.845703,1742.037109 742.308228,1739.161743 742.141846,1732.704590 
	C741.704529,1715.734619 741.641846,1698.738159 742.093262,1681.769775 
	C742.290710,1674.349609 746.021240,1671.340088 753.850830,1670.999390 
	C762.163513,1670.637817 770.503113,1670.896606 778.830994,1670.886963 
	C782.066101,1670.883179 785.301147,1670.886353 789.109131,1670.886353 
	C789.109131,1603.920898 789.109131,1538.150391 789.109131,1471.188965 
	C779.323303,1471.188965 770.088013,1471.218140 760.853027,1471.182251 
	C746.467773,1471.126343 742.422729,1467.156494 742.346375,1452.894897 
	C742.280396,1440.569824 742.242859,1428.243042 742.391296,1415.919434 
	C742.430664,1412.654541 743.118835,1409.384644 743.656982,1406.141479 
	C744.479370,1401.185059 747.677612,1398.655640 752.493774,1398.093262 
	C756.773743,1397.593384 761.073730,1396.933350 765.366272,1396.923462 
	C809.004761,1396.822876 852.643616,1396.809326 896.282166,1396.875732 
	C900.574951,1396.882324 904.912415,1397.312256 909.148499,1398.024780 
	C915.821777,1399.147339 919.438110,1402.599854 919.569641,1409.268799 
	C919.904785,1426.250488 919.946899,1443.250244 919.529785,1460.228516 
	C919.358582,1467.196289 914.801819,1470.687500 906.472656,1471.133057 
	C899.164490,1471.523804 891.819580,1471.191162 884.491882,1471.267944 
	C881.253662,1471.301880 878.017761,1471.557739 873.712891,1471.763794 
	C873.712891,1509.900146 873.712891,1547.450073 873.712769,1586.000000 
z"/>
<path fill="#9DD7D4" opacity="1.000000" stroke="none" 
	d="
M1862.092651,753.481689 
	C1861.836670,753.776001 1861.580566,754.070312 1860.696777,753.649048 
	C1859.379395,747.367004 1858.090698,741.800903 1858.087158,736.233948 
	C1857.979980,570.536499 1857.999268,404.839020 1858.006104,239.141541 
	C1858.006226,236.481628 1857.835938,233.784317 1858.207764,231.170227 
	C1858.824951,226.830963 1860.770386,223.580246 1865.945068,223.989532 
	C1891.228882,238.337387 1916.512695,252.685242 1942.115967,267.214386 
	C1942.115967,413.724304 1942.115967,560.574341 1942.115967,708.124756 
	C1934.224365,712.616882 1926.212891,717.268555 1918.116089,721.766846 
	C1901.528809,730.982544 1884.886475,740.099548 1868.302612,749.321472 
	C1867.229004,749.918457 1866.459839,751.062927 1864.416870,752.127686 
	C1862.743408,752.550049 1862.346069,752.943115 1862.092651,753.481689 
z"/>
<path fill="#62BEBA" opacity="1.000000" stroke="none" 
	d="
M1261.992065,1081.997803 
	C1237.914551,1068.642212 1213.837036,1055.286743 1190.003906,1042.066650 
	C1190.003906,894.344666 1190.003906,747.507324 1190.003906,600.177368 
	C1214.802368,585.971436 1239.579712,571.777649 1265.099121,558.241211 
	C1265.227417,566.817017 1264.083374,574.734985 1264.078247,582.653809 
	C1263.974243,744.974487 1264.014893,907.295227 1263.916016,1069.615967 
	C1263.913452,1073.743652 1262.661377,1077.870483 1261.992065,1081.997803 
z"/>
<path fill="#51B6B1" opacity="1.000000" stroke="none" 
	d="
M1105.607178,1610.124390 
	C1095.945312,1593.896362 1086.287842,1577.665649 1076.614502,1561.444580 
	C1075.663696,1559.850220 1074.614258,1558.314819 1071.700073,1556.964844 
	C1071.700073,1560.399658 1071.700073,1563.834473 1071.700073,1567.269287 
	C1071.699829,1618.881104 1071.700439,1670.493042 1071.697021,1722.104858 
	C1071.696777,1724.768188 1071.890259,1727.456787 1071.599854,1730.090210 
	C1070.581299,1739.324951 1066.704346,1743.062866 1057.305054,1743.153320 
	C1038.992920,1743.329590 1020.675659,1743.351440 1002.364807,1743.113770 
	C992.098328,1742.980347 988.678650,1739.289307 988.347046,1729.142334 
	C988.249207,1726.148682 988.329773,1723.149170 988.329773,1720.152344 
	C988.329651,1619.259521 988.329529,1518.366577 988.330261,1417.473755 
	C988.330261,1414.809937 988.202637,1412.137695 988.368774,1409.484009 
	C988.842468,1401.915649 991.736206,1398.574951 998.985413,1397.280884 
	C1000.933411,1396.932983 1002.963379,1396.963623 1004.955933,1396.959961 
	C1021.604919,1396.929321 1038.255859,1397.080200 1054.902100,1396.868286 
	C1065.153198,1396.737671 1072.541016,1400.395996 1077.620483,1409.798462 
	C1091.508179,1435.505737 1105.905151,1460.937744 1119.453125,1487.145020 
	C1116.380859,1485.593140 1113.955811,1483.375122 1110.000000,1479.757202 
	C1110.000000,1484.868042 1110.000000,1488.381836 1110.000000,1491.895630 
	C1109.999878,1527.140991 1110.001221,1562.386230 1109.996704,1597.631592 
	C1109.996338,1600.291260 1110.486206,1603.109985 1109.754150,1605.557373 
	C1109.222778,1607.334229 1107.048706,1608.619751 1105.607178,1610.124390 
z"/>
<path fill="#BAE2E0" opacity="1.000000" stroke="none" 
	d="
M2214.248291,1399.909058 
	C2252.638672,1402.262329 2283.277344,1418.346924 2302.547363,1452.258911 
	C2308.646729,1462.992554 2312.675293,1475.415649 2315.173828,1487.574707 
	C2320.194336,1512.005493 2318.807373,1536.287231 2308.032715,1559.406860 
	C2300.693359,1575.156006 2290.816895,1588.503784 2276.665283,1599.250000 
	C2266.471680,1606.990601 2255.915527,1613.609741 2244.423340,1619.178467 
	C2255.222168,1635.045166 2266.025879,1650.919434 2276.290039,1667.457520 
	C2269.573975,1669.662720 2270.058350,1674.726929 2270.038818,1679.310303 
	C2269.959229,1697.943848 2269.988281,1716.578003 2270.056152,1735.211670 
	C2270.063232,1737.101318 2270.603271,1738.989258 2271.072266,1742.015625 
	C2286.037354,1742.015625 2300.596436,1742.015625 2315.155762,1742.015625 
	C2312.603027,1742.430664 2310.052246,1743.193970 2307.497559,1743.205566 
	C2287.508789,1743.296753 2267.519531,1743.207397 2247.530273,1743.250244 
	C2237.275879,1743.272217 2229.534912,1739.557617 2223.628174,1730.590942 
	C2204.801270,1702.010620 2185.472168,1673.760376 2166.251221,1645.440796 
	C2161.803223,1638.887329 2159.559326,1631.863892 2159.639648,1623.899414 
	C2159.807617,1607.243408 2159.632080,1590.584351 2159.711426,1573.927002 
	C2159.763672,1563.019897 2162.603027,1559.743530 2173.418457,1558.380127 
	C2177.358398,1557.883423 2181.406494,1557.928955 2185.385742,1558.124512 
	C2194.661865,1558.579834 2203.111328,1556.041504 2211.235352,1551.806396 
	C2228.015625,1543.058594 2236.375488,1528.632568 2234.206543,1510.244263 
	C2232.121826,1492.572266 2220.399414,1479.847900 2202.513184,1474.555664 
	C2191.120361,1471.184937 2179.428223,1472.243408 2166.907471,1470.944092 
	C2166.015625,1446.613892 2166.035156,1423.353760 2166.986328,1400.072754 
	C2183.361328,1400.004272 2198.804932,1399.956665 2214.248291,1399.909058 
z"/>
<path fill="#69C1BD" opacity="1.000000" stroke="none" 
	d="
M1262.389648,1082.556885 
	C1262.661377,1077.870483 1263.913452,1073.743652 1263.916016,1069.615967 
	C1264.014893,907.295227 1263.974243,744.974487 1264.078247,582.653809 
	C1264.083374,574.734985 1265.227417,566.817017 1265.777588,557.987488 
	C1278.763550,549.412415 1291.812988,541.748535 1306.132080,533.338928 
	C1306.132080,681.318298 1306.132080,827.427917 1306.132080,974.124268 
	C1333.173462,989.459534 1359.989258,1004.666992 1386.907471,1020.921021 
	C1383.117310,1025.258667 1384.017822,1029.770630 1384.014404,1034.007446 
	C1383.988159,1067.161987 1384.094849,1100.316895 1383.907104,1133.470459 
	C1383.875610,1139.013306 1382.617432,1144.549438 1381.926270,1150.088623 
	C1368.655762,1142.774292 1355.325684,1135.565796 1342.127441,1128.123291 
	C1315.642578,1113.188477 1289.229858,1098.125854 1262.389648,1082.556885 
z"/>
<path fill="#F5FAF9" opacity="1.000000" stroke="none" 
	d="
M2845.901367,1490.924805 
	C2849.324951,1486.877319 2852.748291,1482.829834 2856.910156,1478.156982 
	C2857.648682,1477.531738 2858.078857,1476.694092 2858.078857,1476.694092 
	C2858.078857,1476.694092 2858.140381,1476.128174 2858.720703,1475.947754 
	C2859.671875,1475.492554 2859.930664,1475.136230 2860.077393,1474.698730 
	C2860.077393,1474.698730 2860.147217,1474.128662 2860.726074,1473.948364 
	C2861.671631,1473.497070 2861.927979,1473.145386 2862.073730,1472.713013 
	C2862.073730,1472.713013 2862.148438,1472.135864 2862.728760,1471.951782 
	C2863.673340,1471.497437 2863.928223,1471.147461 2864.073486,1470.717773 
	C2864.073486,1470.717773 2864.152344,1470.135498 2864.708008,1469.970825 
	C2865.603760,1469.571045 2865.822266,1469.252808 2865.919434,1468.851318 
	C2873.694824,1459.864624 2881.377441,1450.795288 2889.270264,1441.912842 
	C2898.535889,1431.485718 2908.228760,1421.429443 2917.279297,1410.822266 
	C2925.135742,1401.614380 2934.374756,1396.858276 2946.765381,1397.128906 
	C2968.421143,1397.602173 2990.094971,1397.210815 3011.761230,1397.271118 
	C3016.326904,1397.283813 3021.651611,1396.414185 3023.802490,1401.973511 
	C3025.850586,1407.266357 3023.296631,1411.623657 3019.692627,1415.495239 
	C3002.250732,1434.230347 2984.800293,1452.957886 2967.432129,1471.760986 
	C2953.899170,1486.411987 2940.617188,1501.296631 2926.962646,1515.831909 
	C2919.120605,1524.179565 2910.758057,1532.038574 2902.393066,1540.353027 
	C2907.346924,1548.571411 2912.019287,1556.517090 2916.876953,1564.347900 
	C2936.273926,1595.615967 2955.793945,1626.807983 2975.139893,1658.107422 
	C2988.242920,1679.306152 3001.187500,1700.603760 3014.052734,1721.947510 
	C3015.906250,1725.022217 3017.563721,1728.491333 3018.177979,1731.977783 
	C3019.336914,1738.554565 3015.572021,1743.171509 3008.901367,1743.228271 
	C2985.903564,1743.423950 2962.901611,1743.442505 2939.904297,1743.221191 
	C2929.825439,1743.124146 2923.631592,1736.408691 2918.653320,1728.692871 
	C2912.885010,1719.752930 2907.554199,1710.528809 2902.108154,1701.383545 
	C2883.340576,1669.867310 2864.634033,1638.314331 2845.773926,1606.853516 
	C2844.816406,1605.256348 2842.643311,1604.387695 2840.109863,1602.653809 
	C2838.788818,1598.542236 2838.072754,1594.958374 2838.053223,1591.370728 
	C2837.942871,1571.114624 2838.211670,1550.854248 2837.907227,1530.602051 
	C2837.763672,1521.052979 2836.628662,1511.518677 2835.943115,1501.977661 
	C2836.601074,1500.887085 2837.258789,1499.796631 2838.682129,1498.183838 
	C2839.760010,1497.416870 2839.969238,1497.103394 2840.075439,1496.721069 
	C2840.075439,1496.721069 2840.152832,1496.139038 2840.732910,1495.953613 
	C2841.673340,1495.499268 2841.926514,1495.152344 2842.072998,1494.727295 
	C2842.072998,1494.727295 2842.154541,1494.141235 2842.735107,1493.954346 
	C2843.674316,1493.499634 2843.926270,1493.154175 2844.072021,1492.731079 
	C2844.072021,1492.731079 2844.155273,1492.142700 2844.705078,1491.985840 
	C2845.584717,1491.609253 2845.800049,1491.307861 2845.901367,1490.924805 
z"/>
<path fill="#95D3D0" opacity="1.000000" stroke="none" 
	d="
M1865.521973,223.457275 
	C1860.770386,223.580246 1858.824951,226.830963 1858.207764,231.170227 
	C1857.835938,233.784317 1858.006226,236.481628 1858.006104,239.141541 
	C1857.999268,404.839020 1857.979980,570.536499 1858.087158,736.233948 
	C1858.090698,741.800903 1859.379395,747.367004 1860.139404,753.827209 
	C1849.181885,761.244019 1838.153931,767.767151 1825.667236,775.153076 
	C1825.667236,769.742126 1825.667114,766.196106 1825.667114,762.650024 
	C1825.667114,623.398926 1825.606323,484.147766 1825.827148,344.897034 
	C1825.839600,337.033875 1823.801025,332.522217 1816.547241,328.521973 
	C1781.661377,309.283386 1747.178223,289.314911 1712.213867,268.120575 
	C1711.917114,262.641266 1711.993408,258.646973 1711.994507,254.652695 
	C1712.003906,219.363297 1711.956299,184.073746 1712.063110,148.784683 
	C1712.074585,144.999847 1710.557007,140.649078 1714.617798,137.712036 
	C1751.256104,158.407730 1787.902344,179.089264 1824.528442,199.806381 
	C1838.076294,207.469559 1851.576904,215.216370 1865.521973,223.457275 
z"/>
<path fill="#069891" opacity="1.000000" stroke="none" 
	d="
M250.103546,1750.333618 
	C237.703644,1753.039551 225.582916,1750.166382 213.639999,1747.748779 
	C184.382156,1741.826172 158.097443,1729.714111 136.992188,1707.946655 
	C118.642860,1689.021729 108.198212,1666.345581 107.894516,1639.966064 
	C107.361366,1593.655151 107.162964,1547.324097 107.934547,1501.020020 
	C108.490784,1467.639771 123.989479,1441.008179 150.218231,1420.999634 
	C178.405457,1399.497192 210.764420,1389.737183 246.978821,1390.601807 
	C244.616074,1396.232422 243.827866,1401.510620 243.905807,1407.279053 
	C244.159744,1426.073730 244.007446,1444.873901 244.011459,1463.671875 
	C231.807602,1465.442871 219.817535,1467.773804 209.617249,1475.460693 
	C196.036652,1485.694580 190.663391,1500.113525 190.441162,1516.232300 
	C189.946457,1552.113037 189.721176,1588.016846 190.460587,1623.889038 
	C191.091980,1654.520264 207.817581,1672.105713 238.395447,1676.032715 
	C241.685059,1676.455200 245.000061,1676.679932 249.151764,1678.127686 
	C250.034683,1702.950562 250.069107,1726.642090 250.103546,1750.333618 
z"/>
<path fill="#E9F6F5" opacity="1.000000" stroke="none" 
	d="
M2835.311035,1502.197998 
	C2836.628662,1511.518677 2837.763672,1521.052979 2837.907227,1530.602051 
	C2838.211670,1550.854248 2837.942871,1571.114624 2838.053223,1591.370728 
	C2838.072754,1594.958374 2838.788818,1598.542236 2839.516602,1602.865723 
	C2831.933594,1612.095215 2824.259033,1620.832642 2815.998535,1628.975586 
	C2811.842285,1633.072510 2810.195801,1637.313843 2810.243896,1643.076172 
	C2810.468750,1670.054565 2810.343994,1697.035889 2810.343262,1724.016235 
	C2810.343018,1726.347900 2810.477295,1728.689819 2810.306396,1731.009277 
	C2809.681885,1739.484131 2806.329346,1742.912720 2797.766113,1743.214111 
	C2790.114502,1743.483521 2782.445801,1743.269165 2774.784668,1743.266724 
	C2763.459717,1743.263184 2752.132080,1743.398926 2740.810303,1743.205200 
	C2733.053955,1743.072510 2729.406982,1739.689331 2728.345215,1731.953369 
	C2727.850098,1728.345093 2727.705566,1724.664062 2727.704346,1721.015991 
	C2727.672119,1620.755859 2727.671387,1520.495605 2727.684570,1420.235474 
	C2727.687256,1399.708374 2730.131348,1397.293823 2750.579590,1397.286865 
	C2764.569336,1397.282104 2778.565186,1397.535889 2792.547119,1397.202148 
	C2805.908936,1396.883057 2810.720459,1402.327515 2810.525391,1414.832397 
	C2809.995361,1448.799316 2810.343750,1482.780029 2810.343750,1516.755249 
	C2810.343750,1519.939087 2810.343750,1523.122803 2810.343750,1528.739990 
	C2819.580322,1518.749390 2827.129639,1510.583862 2835.311035,1502.197998 
z"/>
<path fill="#22A19B" opacity="1.000000" stroke="none" 
	d="
M559.985168,1742.372925 
	C557.361145,1742.675903 554.737671,1743.237305 552.113098,1743.242310 
	C523.786987,1743.296509 495.460632,1743.267944 467.134369,1743.243408 
	C465.138611,1743.241577 463.114746,1743.277100 461.152405,1742.977661 
	C454.491486,1741.961548 451.141449,1738.705566 450.194244,1732.027222 
	C449.729034,1728.747437 449.717682,1725.385010 449.716919,1722.060059 
	C449.693909,1621.418579 449.688446,1520.776978 449.705261,1420.135498 
	C449.708740,1399.368774 452.382477,1396.788452 473.512848,1396.769897 
	C486.176361,1396.758789 498.839844,1396.752808 511.503357,1396.748047 
	C513.502808,1396.747314 515.512939,1396.635010 517.499878,1396.797729 
	C527.891602,1397.649658 531.630554,1400.922485 533.311218,1411.080811 
	C533.849548,1414.334351 533.718994,1417.715698 533.719849,1421.038574 
	C533.739502,1499.352417 533.735168,1577.666138 533.735229,1655.979980 
	C533.735291,1659.880127 533.735229,1663.780151 533.735229,1669.002930 
	C543.489258,1669.002930 552.060913,1669.002930 561.320129,1670.209473 
	C561.337646,1677.591919 560.184143,1683.760254 560.089539,1689.945068 
	C559.822266,1707.417480 559.989258,1724.896484 559.985168,1742.372925 
z"/>
<path fill="#66C0BC" opacity="1.000000" stroke="none" 
	d="
M1232.867554,1734.136597 
	C1232.713135,1733.203247 1232.558838,1732.269897 1232.732910,1730.409912 
	C1233.281860,1728.777100 1233.013916,1728.292969 1232.257568,1728.031006 
	C1232.067017,1724.398193 1231.713379,1720.765503 1231.710815,1717.132568 
	C1231.674438,1666.980469 1231.693848,1616.828491 1231.670654,1566.676392 
	C1231.668945,1563.033813 1231.443359,1559.391235 1230.473633,1554.410400 
	C1226.515137,1546.986694 1225.905151,1540.502319 1225.937256,1533.745483 
	C1226.081177,1503.481689 1226.399292,1473.209595 1225.833374,1442.955811 
	C1225.545166,1427.553711 1228.973755,1413.450317 1235.980469,1399.981201 
	C1237.472900,1399.251709 1238.965332,1398.522217 1242.058105,1397.906494 
	C1263.751709,1398.020386 1283.844971,1398.020386 1303.938232,1398.020508 
	C1309.998291,1397.718750 1311.880615,1402.146240 1313.189575,1406.695435 
	C1313.904297,1409.178833 1313.670410,1411.968018 1313.670898,1414.619385 
	C1313.690308,1518.176147 1313.688354,1621.732788 1313.684570,1725.289551 
	C1313.684326,1731.639038 1314.122437,1738.178345 1305.464600,1741.837158 
	C1283.068970,1742.017700 1262.328491,1742.101318 1241.588013,1742.185059 
	C1239.091797,1740.664917 1236.595581,1739.144897 1233.940918,1736.560059 
	C1233.633789,1734.937256 1233.328735,1734.484375 1232.867554,1734.136597 
z"/>
<path fill="#95D3D0" opacity="1.000000" stroke="none" 
	d="
M1879.698486,1741.963989 
	C1877.463257,1742.385864 1875.229858,1743.162354 1872.992554,1743.173828 
	C1855.013428,1743.265991 1837.033081,1743.278320 1819.053955,1743.178467 
	C1809.968262,1743.128052 1806.378906,1740.203003 1804.755005,1731.392700 
	C1804.159546,1728.161865 1804.354614,1724.767334 1804.353882,1721.447510 
	C1804.335571,1642.203735 1804.339600,1562.959839 1804.339600,1483.716064 
	C1804.339600,1480.137817 1804.339478,1476.559692 1804.339478,1472.047119 
	C1800.242554,1472.047119 1797.001709,1472.048096 1793.760864,1472.046997 
	C1770.786865,1472.039551 1747.812622,1472.067017 1724.838745,1472.009155 
	C1712.963013,1471.979370 1708.702271,1468.014648 1708.437988,1455.912842 
	C1708.132690,1441.935303 1708.096313,1427.939209 1708.450806,1413.963867 
	C1708.755127,1401.964844 1712.777588,1398.177124 1724.740356,1397.226562 
	C1725.733887,1397.147461 1726.737061,1397.177856 1727.735840,1397.178101 
	C1807.976685,1397.198364 1888.217529,1397.220703 1968.237061,1397.654541 
	C1959.354858,1398.069824 1950.693970,1398.075195 1942.033203,1398.077515 
	C1933.039307,1398.079956 1924.045288,1398.079224 1915.051392,1398.079712 
	C1906.390625,1398.080322 1897.727417,1397.954590 1889.069580,1398.116699 
	C1880.251465,1398.281738 1871.334473,1397.320435 1862.831665,1398.818604 
	C1860.535400,1419.285645 1861.563354,1734.283203 1864.062744,1741.963989 
	C1869.092529,1741.963989 1874.395508,1741.963989 1879.698486,1741.963989 
z"/>
<path fill="#76C6C2" opacity="1.000000" stroke="none" 
	d="
M1527.917969,1520.162231 
	C1526.293335,1516.329590 1524.668701,1512.496948 1522.424438,1507.202881 
	C1520.659058,1511.868164 1519.285889,1515.154053 1518.160034,1518.522705 
	C1494.937988,1588.010620 1471.756592,1657.512207 1448.534180,1727.000000 
	C1443.792603,1741.187866 1440.989624,1743.171509 1426.330444,1743.173096 
	C1409.002808,1743.175049 1391.675171,1743.185181 1374.347534,1743.145508 
	C1360.514893,1743.113770 1357.506714,1739.038086 1362.247314,1726.161133 
	C1375.783325,1689.392944 1389.467163,1652.679199 1403.091675,1615.943481 
	C1427.340820,1550.560059 1451.590332,1485.176392 1475.827393,1419.788330 
	C1476.056519,1419.169922 1476.042358,1418.462036 1476.267090,1417.841309 
	C1482.488037,1400.663696 1487.458374,1397.102173 1505.725342,1397.060547 
	C1520.717896,1397.026489 1535.710571,1397.148804 1550.515625,1397.632202 
	C1543.820068,1398.234741 1537.312134,1398.406860 1530.000000,1398.600220 
	C1530.000000,1403.459961 1530.000000,1407.074097 1530.000000,1410.688354 
	C1530.000000,1442.979980 1530.075439,1475.271973 1529.907837,1507.562744 
	C1529.885986,1511.765991 1528.611938,1515.962524 1527.917969,1520.162231 
z"/>
<path fill="#84CCC9" opacity="1.000000" stroke="none" 
	d="
M1527.939209,1520.915527 
	C1528.611938,1515.962524 1529.885986,1511.765991 1529.907837,1507.562744 
	C1530.075439,1475.271973 1530.000000,1442.979980 1530.000000,1410.688354 
	C1530.000000,1407.074097 1530.000000,1403.459961 1530.000000,1398.600220 
	C1537.312134,1398.406860 1543.820068,1398.234741 1551.261719,1397.986084 
	C1552.195557,1397.909546 1553.157104,1397.751099 1554.062256,1398.482666 
	C1556.767212,1399.428711 1558.567017,1399.643188 1560.366699,1399.857666 
	C1564.881958,1401.138672 1567.505615,1404.167236 1569.110596,1408.534424 
	C1574.071045,1422.031006 1579.267822,1435.440430 1584.280273,1448.918213 
	C1586.532349,1454.973877 1588.398438,1461.175537 1590.725830,1467.200317 
	C1599.559814,1490.067749 1608.818848,1512.775513 1617.358887,1535.751099 
	C1641.054199,1599.499512 1664.468750,1663.352417 1687.991333,1727.165039 
	C1688.450195,1728.409912 1688.995972,1729.638916 1689.296631,1730.923218 
	C1691.046265,1738.396606 1688.213501,1742.455078 1680.590210,1743.148926 
	C1677.617065,1743.419678 1674.600098,1743.214844 1671.603027,1743.213867 
	C1653.953369,1743.208618 1636.303589,1743.242676 1618.654053,1743.176514 
	C1606.826782,1743.132202 1603.501343,1741.014771 1599.438721,1729.739136 
	C1593.477173,1713.193115 1587.894165,1696.510498 1582.187866,1679.872925 
	C1564.102661,1627.141357 1546.035034,1574.403931 1527.939209,1520.915527 
z"/>
<path fill="#84CCC9" opacity="1.000000" stroke="none" 
	d="
M1716.036865,1176.128540 
	C1714.158569,1178.454102 1712.312866,1179.305298 1709.279175,1177.470825 
	C1681.285400,1160.543213 1653.312378,1143.576538 1625.118530,1126.986084 
	C1589.765137,1106.182739 1554.209595,1085.723022 1518.366333,1063.621826 
	C1517.994263,1032.168579 1517.995728,1002.208618 1518.001099,972.248657 
	C1518.002686,963.260742 1517.793579,954.265442 1518.092285,945.287231 
	C1518.331299,938.102112 1519.868530,936.928040 1527.854614,936.056030 
	C1546.027588,946.353149 1564.254639,956.556213 1582.362671,966.966309 
	C1624.653198,991.278687 1666.874634,1015.711426 1709.177612,1040.001953 
	C1711.342529,1041.245117 1714.009521,1041.613647 1716.852539,1042.988159 
	C1713.500366,1046.870117 1713.985840,1051.285767 1713.988525,1055.613159 
	C1714.009155,1090.222168 1713.910156,1124.831787 1714.091064,1159.439819 
	C1714.120117,1165.005981 1715.357788,1170.565796 1716.036865,1176.128540 
z"/>
<path fill="#73C4C1" opacity="1.000000" stroke="none" 
	d="
M1527.471680,935.500610 
	C1519.868530,936.928040 1518.331299,938.102112 1518.092285,945.287231 
	C1517.793579,954.265442 1518.002686,963.260742 1518.001099,972.248657 
	C1517.995728,1002.208618 1517.994263,1032.168579 1517.966187,1063.064209 
	C1508.089233,1058.544678 1498.134766,1053.265747 1488.402954,1047.604248 
	C1439.628906,1019.230469 1390.911743,990.758667 1342.180664,962.311218 
	C1339.623169,960.818359 1337.119507,959.233398 1334.600098,957.696960 
	C1334.600098,913.368469 1334.600098,869.467407 1334.600098,823.887939 
	C1399.364624,860.950928 1463.159790,898.065674 1527.471680,935.500610 
z"/>
<path fill="#D9EEED" opacity="1.000000" stroke="none" 
	d="
M2492.217285,1397.911011 
	C2510.320557,1397.788330 2528.424072,1397.665771 2547.539551,1398.301270 
	C2549.639893,1398.944092 2550.727783,1398.828857 2551.815674,1398.713623 
	C2554.427979,1400.080078 2557.040527,1401.446655 2559.984863,1403.845947 
	C2560.614990,1405.415039 2561.048096,1405.799072 2561.616211,1406.030884 
	C2561.616211,1406.030884 2562.040039,1406.147827 2562.046387,1406.585938 
	C2562.052490,1407.024170 2562.669434,1407.740723 2562.669434,1407.740723 
	C2566.298828,1416.228394 2570.354736,1424.563232 2573.463379,1433.237671 
	C2578.840088,1448.240723 2583.187500,1463.620117 2588.782959,1478.535278 
	C2594.835693,1494.670044 2601.193359,1510.660156 2606.668701,1527.033813 
	C2612.013184,1543.016602 2619.540527,1558.254517 2625.439941,1574.069214 
	C2644.455811,1625.042725 2663.163330,1676.131348 2681.988037,1727.176025 
	C2682.446777,1728.419922 2683.013428,1729.640137 2683.318359,1730.921753 
	C2685.080078,1738.328979 2682.151855,1743.066528 2674.643799,1743.163452 
	C2652.328369,1743.451660 2630.003662,1743.403564 2607.687500,1743.116333 
	C2600.006104,1743.017578 2596.126465,1737.713989 2593.806885,1730.865112 
	C2588.270752,1714.518433 2582.520752,1698.244385 2576.928955,1681.916382 
	C2562.519775,1639.842651 2548.149658,1597.755493 2534.365967,1554.436768 
	C2535.978516,1549.445435 2537.851807,1545.694946 2537.868652,1541.936035 
	C2538.071777,1496.978760 2538.015381,1452.020020 2537.960693,1407.061768 
	C2537.957275,1404.218506 2537.408203,1401.375854 2537.048584,1397.911011 
	C2521.460938,1397.911011 2506.839111,1397.911011 2492.217285,1397.911011 
z"/>
<path fill="#95D3D0" opacity="1.000000" stroke="none" 
	d="
M1716.592285,1176.082031 
	C1715.357788,1170.565796 1714.120117,1165.005981 1714.091064,1159.439819 
	C1713.910156,1124.831787 1714.009155,1090.222168 1713.988525,1055.613159 
	C1713.985840,1051.285767 1713.500366,1046.870117 1717.640259,1042.926270 
	C1718.018066,1042.265503 1718.102539,1042.047119 1718.774658,1042.037598 
	C1720.291870,1041.356934 1721.136841,1040.685791 1721.981934,1040.014771 
	C1737.277344,1030.840942 1752.486450,1021.519165 1767.885498,1012.522766 
	C1804.743042,990.990051 1841.690063,969.610291 1879.301880,948.961792 
	C1879.335205,962.934753 1878.276978,976.109131 1878.087402,989.296021 
	C1877.768066,1011.511841 1877.820068,1033.737915 1878.090942,1055.955078 
	C1878.194946,1064.493408 1879.326050,1073.019043 1879.989258,1081.550537 
	C1862.043945,1092.148193 1844.150757,1102.835449 1826.140869,1113.322266 
	C1800.648926,1128.165527 1775.075195,1142.868408 1749.527466,1157.615723 
	C1740.167114,1163.018799 1730.780640,1168.376831 1720.313477,1174.002441 
	C1718.688599,1174.495117 1718.309570,1174.888306 1718.083496,1175.429077 
	C1717.771606,1175.631104 1717.459839,1175.833252 1716.592285,1176.082031 
z"/>
<path fill="#95D3D0" opacity="1.000000" stroke="none" 
	d="
M1919.389893,754.328613 
	C1920.064575,798.309814 1920.050415,842.374329 1920.059082,887.400635 
	C1904.279175,897.951477 1888.588013,907.731140 1872.648193,917.087036 
	C1845.821411,932.833130 1818.885010,948.394531 1791.893066,963.856201 
	C1781.939697,969.557739 1771.698730,974.757629 1760.714600,979.389648 
	C1759.226685,974.019043 1758.099365,969.447205 1758.080933,964.870850 
	C1757.928955,927.224182 1757.983154,889.576660 1757.974731,851.929443 
	C1796.823486,828.423645 1835.682983,804.935547 1874.515503,781.403137 
	C1889.275757,772.458557 1903.974243,763.411987 1919.389893,754.328613 
z"/>
<path fill="#76C6C2" opacity="1.000000" stroke="none" 
	d="
M1382.352783,1150.616089 
	C1382.617432,1144.549438 1383.875610,1139.013306 1383.907104,1133.470459 
	C1384.094849,1100.316895 1383.988159,1067.161987 1384.014404,1034.007446 
	C1384.017822,1029.770630 1383.117310,1025.258667 1387.451904,1021.389526 
	C1399.419067,1027.657715 1410.806519,1034.750610 1422.503784,1041.289062 
	C1437.602783,1049.728882 1453.089722,1057.476074 1468.164917,1065.956543 
	C1529.564819,1100.496704 1590.872314,1135.201538 1652.208008,1169.856079 
	C1653.892456,1170.807739 1655.510376,1171.877075 1658.711914,1173.846680 
	C1655.426392,1174.566040 1653.803589,1175.231812 1652.180542,1175.232178 
	C1578.526611,1175.247559 1504.872559,1175.256958 1431.219238,1175.028931 
	C1427.135864,1175.016357 1422.673340,1173.699097 1419.049072,1171.755371 
	C1406.798340,1165.184692 1394.845947,1158.057739 1382.352783,1150.616089 
z"/>
<path fill="#69C1BD" opacity="1.000000" stroke="none" 
	d="
M1258.036011,222.292160 
	C1294.624268,200.975540 1331.207886,179.650940 1367.803101,158.346283 
	C1382.386230,149.856369 1396.966064,141.359650 1411.616577,132.987091 
	C1414.620972,131.270035 1417.471069,128.123917 1421.297363,131.348831 
	C1414.627441,136.532867 1411.731812,142.205078 1411.825073,150.428131 
	C1412.224731,185.658218 1411.919800,220.895828 1412.096191,256.129578 
	C1412.117188,260.317444 1413.515381,264.498444 1414.275146,268.682617 
	C1383.008179,286.827850 1351.756958,305.000427 1320.468384,323.108154 
	C1301.508911,334.080627 1282.491211,344.952728 1262.398438,356.067261 
	C1260.760864,356.494659 1260.361328,356.870239 1260.098633,357.391357 
	C1259.787476,357.602692 1259.476440,357.814056 1258.580200,357.303101 
	C1257.332397,353.007721 1256.024414,349.419922 1256.105713,345.863892 
	C1257.047852,304.677429 1253.617432,263.420532 1258.036011,222.292160 
z"/>
<path fill="#66C0BC" opacity="1.000000" stroke="none" 
	d="
M1193.150269,565.939697 
	C1188.523804,564.604065 1187.965088,561.200562 1187.970947,557.284180 
	C1188.025879,520.342590 1187.950806,483.400635 1188.091919,446.459473 
	C1188.105469,442.886261 1189.322876,439.317688 1190.011230,434.904663 
	C1203.535278,425.935089 1216.945190,417.663696 1230.539673,409.707794 
	C1269.173340,387.098297 1307.882324,364.617645 1347.278931,342.910370 
	C1347.330811,356.263306 1346.278320,368.786224 1346.087036,381.322296 
	C1345.767822,402.231232 1345.767822,423.152252 1346.099609,444.060760 
	C1346.261597,454.268890 1347.474609,464.460388 1348.212036,474.659363 
	C1310.849243,496.868073 1273.523560,519.139404 1236.104858,541.253418 
	C1222.083984,549.539551 1207.846802,557.459717 1193.150269,565.939697 
z"/>
<path fill="#CFEBE9" opacity="1.000000" stroke="none" 
	d="
M2491.416504,1397.823975 
	C2506.839111,1397.911011 2521.460938,1397.911011 2537.048584,1397.911011 
	C2537.408203,1401.375854 2537.957275,1404.218506 2537.960693,1407.061768 
	C2538.015381,1452.020020 2538.071777,1496.978760 2537.868652,1541.936035 
	C2537.851807,1545.694946 2535.978516,1549.445435 2534.323242,1553.659546 
	C2528.159912,1538.947998 2522.641357,1523.776855 2516.744629,1507.565918 
	C2515.544922,1510.269043 2514.492676,1512.200439 2513.804443,1514.253784 
	C2489.945068,1585.426880 2466.101562,1656.605225 2442.324707,1727.805908 
	C2440.298096,1733.874146 2438.370361,1739.816528 2430.725830,1741.239990 
	C2429.311768,1734.488281 2428.102051,1728.606079 2428.086182,1722.720581 
	C2427.940430,1667.972656 2428.000732,1613.224365 2427.997559,1558.476074 
	C2427.997314,1555.821899 2428.478027,1553.018799 2427.770020,1550.563110 
	C2427.254883,1548.775757 2425.148682,1547.447021 2423.751709,1545.913818 
	C2423.859131,1544.999512 2423.966309,1544.085083 2424.710449,1542.265747 
	C2425.731445,1540.877197 2425.908203,1540.327026 2425.878174,1539.710327 
	C2433.144531,1519.537476 2440.348389,1499.341919 2447.693848,1479.197998 
	C2455.153809,1458.740234 2462.733643,1438.325928 2470.312988,1417.911865 
	C2471.462402,1414.815918 2472.777832,1411.768433 2474.218994,1408.796875 
	C2477.528809,1401.972412 2482.984131,1398.212036 2491.416504,1397.823975 
z"/>
<path fill="#79C7C4" opacity="1.000000" stroke="none" 
	d="
M1414.804443,268.499084 
	C1413.515381,264.498444 1412.117188,260.317444 1412.096191,256.129578 
	C1411.919800,220.895828 1412.224731,185.658218 1411.825073,150.428131 
	C1411.731812,142.205078 1414.627441,136.532867 1421.762207,131.946808 
	C1427.899048,135.226196 1433.172974,138.895493 1438.741577,142.043808 
	C1461.140259,154.707443 1483.701294,167.084625 1506.065674,179.808197 
	C1527.368652,191.928101 1548.501465,204.347366 1569.312744,217.283722 
	C1562.891724,217.991898 1561.225708,222.395554 1560.247314,227.072815 
	C1559.714111,229.621857 1559.955811,232.355682 1560.014771,235.002457 
	C1560.840088,272.034729 1558.037598,309.130157 1561.939453,346.108612 
	C1543.566406,335.608643 1525.148560,325.186127 1506.831055,314.590149 
	C1480.453125,299.331696 1454.171997,283.906189 1427.772949,268.684723 
	C1425.337769,267.280670 1422.351074,266.833252 1418.436523,266.112854 
	C1416.709717,266.534027 1416.319458,266.933258 1416.081787,267.481812 
	C1415.832520,267.759705 1415.583130,268.037628 1414.804443,268.499084 
z"/>
<path fill="#AEDDDA" opacity="1.000000" stroke="none" 
	d="
M2166.054688,1400.093750 
	C2166.035156,1423.353760 2166.015625,1446.613892 2165.989014,1470.792725 
	C2150.379150,1471.711426 2134.776367,1471.711426 2117.677734,1471.711426 
	C2117.677734,1475.903198 2117.677490,1479.386597 2117.677490,1482.869995 
	C2117.677246,1563.736572 2117.670898,1644.603149 2117.689941,1725.469727 
	C2117.691406,1731.840454 2118.116211,1738.307373 2109.563477,1741.947510 
	C2095.676514,1741.950317 2083.455078,1741.950317 2070.694336,1741.950317 
	C2070.694336,1627.475464 2070.694336,1514.384644 2070.694336,1400.093750 
	C2102.932861,1400.093750 2134.493896,1400.093750 2166.054688,1400.093750 
z"/>
<path fill="#5EBCB7" opacity="1.000000" stroke="none" 
	d="
M1257.354736,222.406906 
	C1253.617432,263.420532 1257.047852,304.677429 1256.105713,345.863892 
	C1256.024414,349.419922 1257.332397,353.007721 1258.034912,357.447845 
	C1247.894043,364.464020 1237.814941,370.788849 1227.515869,376.732697 
	C1174.616699,407.262421 1121.661377,437.695190 1068.720703,468.152985 
	C1067.592285,468.802155 1066.403198,469.345764 1063.708984,470.721863 
	C1065.059937,467.486481 1065.657593,465.494141 1066.661255,463.733063 
	C1098.067749,408.626190 1129.513062,353.541473 1160.954956,298.454803 
	C1162.766357,295.281158 1164.976562,292.274933 1166.355835,288.925049 
	C1172.880249,273.080292 1184.613892,263.039917 1199.716187,255.268585 
	C1219.168213,245.258972 1237.729004,233.517303 1257.354736,222.406906 
z"/>
<path fill="#73C4C1" opacity="1.000000" stroke="none" 
	d="
M1348.893799,474.434082 
	C1347.474609,464.460388 1346.261597,454.268890 1346.099609,444.060760 
	C1345.767822,423.152252 1345.767822,402.231232 1346.087036,381.322296 
	C1346.278320,368.786224 1347.330811,356.263306 1347.987061,342.865845 
	C1347.978027,341.997192 1347.999023,341.995087 1348.401855,341.878296 
	C1349.320068,341.511200 1349.701416,341.127472 1349.948364,340.610321 
	C1368.474121,329.607452 1386.988525,318.585419 1405.532227,307.612732 
	C1411.515869,304.072052 1417.576538,300.661285 1424.514282,296.665619 
	C1462.742798,318.613342 1501.223511,340.705780 1540.480591,363.243988 
	C1538.189575,364.958923 1536.549316,366.467468 1534.666016,367.555389 
	C1487.833984,394.607605 1440.979980,421.621796 1394.120972,448.627289 
	C1379.285645,457.177094 1364.424805,465.682831 1348.893799,474.434082 
z"/>
<path fill="#9DD7D4" opacity="1.000000" stroke="none" 
	d="
M1880.651123,1081.373047 
	C1879.326050,1073.019043 1878.194946,1064.493408 1878.090942,1055.955078 
	C1877.820068,1033.737915 1877.768066,1011.511841 1878.087402,989.296021 
	C1878.276978,976.109131 1879.335205,962.934753 1880.002197,948.887329 
	C1885.369141,944.715820 1890.736816,941.411621 1897.285400,937.865356 
	C1898.981079,937.165100 1899.495850,936.707031 1900.010742,936.249023 
	C1900.010742,936.249023 1900.095703,935.999512 1900.771484,935.986450 
	C1902.280396,935.316101 1903.113525,934.658691 1903.946777,934.001343 
	C1925.632935,921.114746 1947.246338,908.103882 1969.022583,895.371399 
	C1999.708618,877.429565 2030.513062,859.689880 2061.277344,841.881897 
	C2062.661133,841.080872 2064.148438,840.458923 2067.528564,838.802063 
	C2065.981445,842.084534 2065.372314,843.650452 2064.545654,845.091858 
	C2032.311035,901.292786 2000.058960,957.483765 1967.794678,1013.667725 
	C1966.636841,1015.683899 1964.955200,1017.474548 1964.155762,1019.609314 
	C1957.635986,1037.019043 1943.727417,1046.382690 1928.026367,1054.507080 
	C1912.112915,1062.741455 1896.857056,1072.246948 1880.651123,1081.373047 
z"/>
<path fill="#84CCC9" opacity="1.000000" stroke="none" 
	d="
M1562.364014,346.641571 
	C1558.037598,309.130157 1560.840088,272.034729 1560.014771,235.002457 
	C1559.955811,232.355682 1559.714111,229.621857 1560.247314,227.072815 
	C1561.225708,222.395554 1562.891724,217.991898 1569.724243,217.846497 
	C1585.784668,226.393127 1601.095825,234.924271 1616.276978,243.680786 
	C1642.127441,258.591370 1667.896240,273.643524 1693.213867,289.275299 
	C1689.947021,290.292847 1687.165649,290.671326 1684.000000,291.102081 
	C1684.000000,296.535583 1684.000000,300.839020 1684.000000,305.142487 
	C1683.999878,338.383911 1684.015503,371.625397 1683.979980,404.866760 
	C1683.975464,409.076904 1684.997559,413.772186 1679.793213,416.086578 
	C1660.238647,405.004852 1640.534546,394.177094 1621.171387,382.770477 
	C1601.535034,371.202911 1582.235474,359.063507 1562.364014,346.641571 
z"/>
<path fill="#5EBCB7" opacity="1.000000" stroke="none" 
	d="
M1235.296753,1400.057861 
	C1228.973755,1413.450317 1225.545166,1427.553711 1225.833374,1442.955811 
	C1226.399292,1473.209595 1226.081177,1503.481689 1225.937256,1533.745483 
	C1225.905151,1540.502319 1226.515137,1546.986694 1229.948975,1553.820557 
	C1217.955933,1576.233154 1205.722656,1597.945312 1193.279907,1619.536743 
	C1188.584473,1627.684692 1183.641968,1635.716431 1178.326172,1643.468018 
	C1176.238159,1646.512939 1172.820923,1648.646362 1168.654785,1651.609131 
	C1156.421997,1652.090332 1145.543457,1652.157227 1134.664917,1652.224243 
	C1127.700684,1650.889526 1125.049316,1644.993042 1121.962891,1639.805420 
	C1116.423218,1630.494019 1111.242920,1620.968872 1105.759766,1610.828613 
	C1107.048706,1608.619751 1109.222778,1607.334229 1109.754150,1605.557373 
	C1110.486206,1603.109985 1109.996338,1600.291260 1109.996704,1597.631592 
	C1110.001221,1562.386230 1109.999878,1527.140991 1110.000000,1491.895630 
	C1110.000000,1488.381836 1110.000000,1484.868042 1110.000000,1479.757202 
	C1113.955811,1483.375122 1116.380859,1485.593140 1119.542236,1487.864746 
	C1125.401367,1496.792847 1130.629272,1505.608643 1135.617065,1514.558228 
	C1140.531860,1523.377075 1145.203247,1532.331787 1150.576172,1542.333862 
	C1152.740112,1539.524780 1154.493286,1537.744629 1155.673950,1535.642822 
	C1179.075439,1493.987671 1202.350220,1452.261230 1225.858154,1410.666260 
	C1228.068481,1406.755493 1231.661865,1403.626587 1235.296753,1400.057861 
z"/>
<path fill="#84CCC9" opacity="1.000000" stroke="none" 
	d="
M1714.070312,137.113068 
	C1710.557007,140.649078 1712.074585,144.999847 1712.063110,148.784683 
	C1711.956299,184.073746 1712.003906,219.363297 1711.994507,254.652695 
	C1711.993408,258.646973 1711.917114,262.641266 1711.782227,267.605042 
	C1691.974243,257.612793 1672.182495,246.787369 1652.559937,235.663513 
	C1595.915771,203.552597 1539.338135,171.324265 1482.743652,139.125549 
	C1480.848267,138.047226 1479.053833,136.791748 1477.564575,134.080795 
	C1480.399292,134.080795 1483.234009,134.081436 1486.068726,134.080704 
	C1557.396851,134.062500 1628.725220,133.999191 1700.052979,134.132599 
	C1704.544434,134.141006 1709.032959,135.684677 1714.070312,137.113068 
z"/>
<path fill="#9DD7D4" opacity="1.000000" stroke="none" 
	d="
M1880.468506,1741.848877 
	C1874.395508,1741.963989 1869.092529,1741.963989 1864.062744,1741.963989 
	C1861.563354,1734.283203 1860.535400,1419.285645 1862.831665,1398.818604 
	C1871.334473,1397.320435 1880.251465,1398.281738 1889.069580,1398.116699 
	C1897.727417,1397.954590 1906.390625,1398.080322 1915.051392,1398.079712 
	C1924.045288,1398.079224 1933.039307,1398.079956 1942.033203,1398.077515 
	C1950.693970,1398.075195 1959.354858,1398.069824 1968.942139,1398.043457 
	C1979.607666,1398.713989 1983.355957,1401.836548 1983.577881,1411.156494 
	C1983.950562,1426.812622 1983.976929,1442.491821 1983.577759,1458.146606 
	C1983.319458,1468.275269 1978.857056,1472.006470 1968.228271,1472.044678 
	C1945.230957,1472.127197 1922.232910,1472.059082 1899.235229,1472.052856 
	C1895.964844,1472.052002 1892.694458,1472.052734 1888.326294,1472.052734 
	C1888.326294,1476.390625 1888.326172,1479.946777 1888.326172,1483.502930 
	C1888.326172,1562.495117 1888.320312,1641.487183 1888.335449,1720.479370 
	C1888.336914,1728.375488 1887.622192,1735.989868 1880.468506,1741.848877 
z"/>
<path fill="#8FD0CC" opacity="1.000000" stroke="none" 
	d="
M1680.234375,416.611115 
	C1684.997559,413.772186 1683.975464,409.076904 1683.979980,404.866760 
	C1684.015503,371.625397 1683.999878,338.383911 1684.000000,305.142487 
	C1684.000000,300.839020 1684.000000,296.535583 1684.000000,291.102081 
	C1687.165649,290.671326 1689.947021,290.292847 1693.623047,289.838867 
	C1707.721436,297.557709 1720.860596,305.464325 1734.151978,313.106476 
	C1742.867554,318.117676 1751.863281,322.639343 1760.625122,327.572571 
	C1772.778320,334.415161 1784.830078,341.438202 1797.240234,348.564911 
	C1797.240234,393.417480 1797.240234,438.212494 1797.240234,484.510345 
	C1757.876831,461.758179 1719.276123,439.446899 1680.234375,416.611115 
z"/>
<path fill="#89CECB" opacity="1.000000" stroke="none" 
	d="
M1757.276855,852.035583 
	C1757.983154,889.576660 1757.928955,927.224182 1758.080933,964.870850 
	C1758.099365,969.447205 1759.226685,974.019043 1759.959351,979.442383 
	C1754.664551,984.180786 1749.440430,988.374878 1743.794678,991.892090 
	C1733.665405,998.202454 1723.183716,1003.947266 1713.055176,1010.258972 
	C1709.121826,1012.710022 1706.178833,1012.424622 1702.214111,1010.094482 
	C1666.213501,988.936096 1630.069824,968.021118 1592.758057,946.331543 
	C1595.978027,944.180725 1598.436768,942.308472 1601.098999,940.793945 
	C1647.495728,914.399475 1693.921875,888.056824 1740.327515,861.677917 
	C1745.787354,858.574402 1751.163818,855.324036 1757.276855,852.035583 
z"/>
<path fill="#A6DAD7" opacity="1.000000" stroke="none" 
	d="
M2166.986328,1400.072754 
	C2134.493896,1400.093750 2102.932861,1400.093750 2070.694336,1400.093750 
	C2070.694336,1514.384644 2070.694336,1627.475464 2070.694336,1741.950317 
	C2083.455078,1741.950317 2095.676514,1741.950317 2108.808594,1741.971069 
	C2107.819092,1742.414673 2105.920410,1743.196045 2104.017822,1743.204712 
	C2085.701660,1743.288940 2067.384033,1743.345703 2049.068359,1743.194458 
	C2038.792480,1743.109619 2035.680786,1739.757812 2035.674927,1729.093750 
	C2035.639160,1664.485840 2035.656616,1599.877808 2035.656250,1535.269897 
	C2035.656006,1495.972290 2035.655884,1456.674683 2035.656006,1417.377075 
	C2035.656006,1415.378906 2035.608154,1413.379272 2035.665894,1411.382812 
	C2035.951050,1401.519653 2039.083496,1398.189453 2048.972900,1398.095093 
	C2066.288818,1397.929932 2083.607666,1398.039429 2100.925293,1398.035156 
	C2127.234619,1398.028809 2153.544922,1397.907227 2179.853271,1398.072998 
	C2190.809814,1398.141968 2201.762695,1398.824707 2213.482910,1399.568726 
	C2198.804932,1399.956665 2183.361328,1400.004272 2166.986328,1400.072754 
z"/>
<path fill="#129C96" opacity="1.000000" stroke="none" 
	d="
M251.011353,1750.481201 
	C250.069107,1726.642090 250.034683,1702.950562 249.992325,1678.446533 
	C258.718475,1675.830200 267.653168,1674.680664 276.142426,1672.078125 
	C291.102600,1667.491821 299.653168,1656.918823 302.802979,1641.504150 
	C306.672699,1622.565918 307.697327,1621.998901 327.294128,1621.992676 
	C338.944244,1621.988892 350.594391,1621.977417 362.244507,1621.989380 
	C364.905792,1621.992188 367.585419,1621.893799 370.225037,1622.157593 
	C381.054749,1623.239624 386.049530,1627.674194 385.434387,1638.990112 
	C384.829559,1650.115479 383.186890,1661.557739 379.658508,1672.075562 
	C371.618591,1696.042358 355.008514,1713.644531 333.768585,1726.728638 
	C308.748077,1742.141724 281.620880,1750.947632 251.011353,1750.481201 
z"/>
<path fill="#129C96" opacity="1.000000" stroke="none" 
	d="
M244.906555,1463.796875 
	C244.007446,1444.873901 244.159744,1426.073730 243.905807,1407.279053 
	C243.827866,1401.510620 244.616074,1396.232422 247.907059,1390.616211 
	C273.334076,1389.912231 297.909149,1394.221802 321.100861,1404.510864 
	C345.890289,1415.508789 365.786102,1432.286621 376.609924,1457.722412 
	C380.850159,1467.686890 383.907410,1478.512329 385.299927,1489.231812 
	C386.728210,1500.226685 381.545258,1505.266113 371.331482,1505.274292 
	C354.012115,1505.288208 336.692474,1505.208984 319.373566,1505.295166 
	C312.542358,1505.329102 308.164459,1502.176025 305.418518,1496.038696 
	C301.419708,1487.101440 296.134583,1478.941528 287.517883,1473.888184 
	C282.163300,1470.748047 276.362946,1467.750366 270.379913,1466.450928 
	C262.381409,1464.713623 254.011856,1464.684570 244.906555,1463.796875 
z"/>
<path fill="#2EA8A3" opacity="1.000000" stroke="none" 
	d="
M560.881897,1742.666260 
	C559.989258,1724.896484 559.822266,1707.417480 560.089539,1689.945068 
	C560.184143,1683.760254 561.337646,1677.591919 562.063965,1670.547852 
	C583.031006,1669.532104 603.941528,1669.318237 624.852539,1669.255615 
	C645.108459,1669.194946 665.364868,1669.289673 687.107483,1669.641602 
	C689.002258,1669.999756 689.410583,1670.032227 689.818909,1670.064819 
	C697.272095,1671.140137 699.426514,1676.761230 699.572937,1682.900879 
	C699.942200,1698.389648 699.932007,1713.899414 699.544373,1729.387451 
	C699.426147,1734.110352 698.876404,1739.476685 692.216431,1741.855469 
	C691.283936,1742.020874 690.572083,1742.315674 690.572083,1742.315674 
	C688.614319,1742.620361 686.656311,1743.192261 684.698853,1743.190430 
	C643.725403,1743.152466 602.752014,1743.049561 560.881897,1742.666260 
z"/>
<path fill="#C6E5E4" opacity="1.000000" stroke="none" 
	d="
M2423.180664,1546.334229 
	C2425.148682,1547.447021 2427.254883,1548.775757 2427.770020,1550.563110 
	C2428.478027,1553.018799 2427.997314,1555.821899 2427.997559,1558.476074 
	C2428.000732,1613.224365 2427.940430,1667.972656 2428.086182,1722.720581 
	C2428.102051,1728.606079 2429.311768,1734.488281 2429.997070,1741.222168 
	C2427.488037,1742.472656 2424.951904,1743.207153 2422.411865,1743.219604 
	C2403.785889,1743.310547 2385.158936,1743.299194 2366.532715,1743.233398 
	C2354.904053,1743.192261 2351.812500,1738.825806 2355.829102,1727.569946 
	C2362.061768,1710.102295 2368.565918,1692.731201 2375.000488,1675.336060 
	C2390.856445,1632.470459 2406.738037,1589.614380 2423.180664,1546.334229 
z"/>
<path fill="#C6E5E4" opacity="1.000000" stroke="none" 
	d="
M2315.665527,1741.423950 
	C2300.596436,1742.015625 2286.037354,1742.015625 2271.072266,1742.015625 
	C2270.603271,1738.989258 2270.063232,1737.101318 2270.056152,1735.211670 
	C2269.988281,1716.578003 2269.959229,1697.943848 2270.038818,1679.310303 
	C2270.058350,1674.726929 2269.573975,1669.662720 2276.488770,1668.088379 
	C2282.350098,1675.483521 2287.437500,1682.936401 2292.603760,1690.333862 
	C2300.607666,1701.794067 2308.844727,1713.096191 2316.637695,1724.697266 
	C2321.915283,1732.553711 2321.586426,1734.704224 2315.665527,1741.423950 
z"/>
<path fill="#5EBCB7" opacity="1.000000" stroke="none" 
	d="
M1242.334229,1742.584106 
	C1262.328491,1742.101318 1283.068970,1742.017700 1304.716797,1741.930664 
	C1303.731934,1742.366943 1301.839966,1743.186401 1299.947632,1743.187378 
	C1280.991943,1743.196411 1262.036255,1743.070801 1242.334229,1742.584106 
z"/>
<path fill="#5EBCB7" opacity="1.000000" stroke="none" 
	d="
M1303.246094,1397.599121 
	C1283.844971,1398.020386 1263.751709,1398.020386 1242.701660,1397.964600 
	C1247.916870,1397.588257 1254.087280,1397.029053 1260.260742,1396.995728 
	C1274.357788,1396.919678 1288.456177,1397.100952 1303.246094,1397.599121 
z"/>
<path fill="#129C96" opacity="1.000000" stroke="none" 
	d="
M1135.266846,1652.665039 
	C1145.543457,1652.157227 1156.421997,1652.090332 1168.131348,1652.163086 
	C1157.931152,1652.570557 1146.899902,1652.838135 1135.266846,1652.665039 
z"/>
<path fill="#76C6C2" opacity="1.000000" stroke="none" 
	d="
M1559.858276,1399.393433 
	C1558.567017,1399.643188 1556.767212,1399.428711 1554.487305,1398.720947 
	C1555.788086,1398.461426 1557.568970,1398.695312 1559.858276,1399.393433 
z"/>
<path fill="#CFEBE9" opacity="1.000000" stroke="none" 
	d="
M2551.228271,1398.417725 
	C2550.727783,1398.828857 2549.639893,1398.944092 2548.284668,1398.662231 
	C2548.891602,1398.217285 2549.766357,1398.169556 2551.228271,1398.417725 
z"/>
<path fill="#95D3D0" opacity="1.000000" stroke="none" 
	d="
M1903.390259,934.005127 
	C1903.113525,934.658691 1902.280396,935.316101 1900.894287,936.034180 
	C1901.172119,935.399597 1902.002930,934.704224 1903.390259,934.005127 
z"/>
<path fill="#84CCC9" opacity="1.000000" stroke="none" 
	d="
M1721.418335,1040.017334 
	C1721.136841,1040.685791 1720.291870,1041.356934 1718.884155,1042.079102 
	C1719.165894,1041.426758 1720.010376,1040.723389 1721.418335,1040.017334 
z"/>
<path fill="#95D3D0" opacity="1.000000" stroke="none" 
	d="
M1923.350342,751.921265 
	C1923.091187,752.554565 1922.286987,753.281250 1920.912354,754.066772 
	C1921.162964,753.421997 1921.984131,752.718262 1923.350342,751.921265 
z"/>
<path fill="#C6E5E4" opacity="1.000000" stroke="none" 
	d="
M2425.443848,1539.928955 
	C2425.908203,1540.327026 2425.731445,1540.877197 2425.005371,1541.639160 
	C2424.301514,1541.234253 2424.416748,1540.644409 2425.443848,1539.928955 
z"/>
<path fill="#69C1BD" opacity="1.000000" stroke="none" 
	d="
M1416.519287,267.437256 
	C1416.319458,266.933258 1416.709717,266.534027 1417.666992,266.189819 
	C1417.895752,266.691803 1417.520874,267.124207 1416.519287,267.437256 
z"/>
<path fill="#22A19B" opacity="1.000000" stroke="none" 
	d="
M690.763428,1742.504395 
	C690.572083,1742.315674 691.283936,1742.020874 691.473999,1741.987061 
	C691.598145,1742.364136 691.361755,1742.610840 690.763428,1742.504395 
z"/>
<path fill="#5EBCB7" opacity="1.000000" stroke="none" 
	d="
M1232.755615,1734.581299 
	C1233.328735,1734.484375 1233.633789,1734.937256 1233.823975,1735.908936 
	C1233.245239,1736.090942 1232.838013,1735.658813 1232.755615,1734.581299 
z"/>
<path fill="#5EBCB7" opacity="1.000000" stroke="none" 
	d="
M1232.185791,1728.527466 
	C1233.013916,1728.292969 1233.281860,1728.777100 1232.818359,1729.699097 
	C1232.421631,1729.617798 1232.267822,1729.320801 1232.185791,1728.527466 
z"/>
<path fill="#95D3D0" opacity="1.000000" stroke="none" 
	d="
M1899.466919,936.278564 
	C1899.495850,936.707031 1898.981079,937.165100 1897.945679,937.707153 
	C1897.924438,937.296753 1898.423828,936.802429 1899.466919,936.278564 
z"/>
<path fill="#95D3D0" opacity="1.000000" stroke="none" 
	d="
M1922.545410,887.420166 
	C1922.338379,886.870850 1922.728516,886.487244 1923.686401,886.194580 
	C1923.940186,886.742004 1923.569580,887.175415 1922.545410,887.420166 
z"/>
<path fill="#22A19B" opacity="1.000000" stroke="none" 
	d="
M689.591309,1669.788330 
	C689.410583,1670.032227 689.002258,1669.999756 687.985291,1669.856812 
	C688.039001,1669.668213 688.701355,1669.589966 689.591309,1669.788330 
z"/>
<path fill="#66C0BC" opacity="1.000000" stroke="none" 
	d="
M1349.525635,340.664490 
	C1349.701416,341.127472 1349.320068,341.511200 1348.408081,341.871155 
	C1348.202026,341.410309 1348.565796,340.989594 1349.525635,340.664490 
z"/>
<path fill="#5EBCB7" opacity="1.000000" stroke="none" 
	d="
M1260.535645,357.375214 
	C1260.361328,356.870239 1260.760864,356.494659 1261.704346,356.173615 
	C1261.912598,356.669220 1261.532959,357.094696 1260.535645,357.375214 
z"/>
<path fill="#84CCC9" opacity="1.000000" stroke="none" 
	d="
M1718.533325,1175.433960 
	C1718.309570,1174.888306 1718.688599,1174.495117 1719.626831,1174.157349 
	C1719.945435,1174.723511 1719.595459,1175.181396 1718.533325,1175.433960 
z"/>
<path fill="#CFEBE9" opacity="1.000000" stroke="none" 
	d="
M2561.596191,1405.549194 
	C2561.048096,1405.799072 2560.614990,1405.415039 2560.178467,1404.460815 
	C2560.758301,1404.075317 2561.270508,1404.416870 2561.596191,1405.549194 
z"/>
<path fill="#CFEBE9" opacity="1.000000" stroke="none" 
	d="
M2562.764648,1407.456421 
	C2562.669434,1407.740723 2562.052490,1407.024170 2561.982910,1406.796387 
	C2562.383545,1406.527222 2562.699219,1406.728394 2562.764648,1407.456421 
z"/>
<path fill="#95D3D0" opacity="1.000000" stroke="none" 
	d="
M1862.535156,753.445801 
	C1862.346069,752.943115 1862.743408,752.550049 1863.697144,752.202271 
	C1863.929077,752.708313 1863.551636,753.144287 1862.535156,753.445801 
z"/>
<path fill="#E9F6F5" opacity="1.000000" stroke="none" 
	d="
M2839.752441,1496.754639 
	C2839.969238,1497.103394 2839.760010,1497.416870 2839.187500,1497.782471 
	C2838.830322,1497.412354 2838.997803,1497.040649 2839.752441,1496.754639 
z"/>
<path fill="#E9F6F5" opacity="1.000000" stroke="none" 
	d="
M2841.720703,1494.790649 
	C2841.926514,1495.152344 2841.673340,1495.499268 2841.023926,1495.915894 
	C2840.694824,1495.528809 2840.906006,1495.125610 2841.720703,1494.790649 
z"/>
<path fill="#E9F6F5" opacity="1.000000" stroke="none" 
	d="
M2843.720947,1492.793701 
	C2843.926270,1493.154175 2843.674316,1493.499634 2843.028320,1493.914429 
	C2842.698975,1493.528320 2842.908691,1493.126587 2843.720947,1492.793701 
z"/>
<path fill="#E9F6F5" opacity="1.000000" stroke="none" 
	d="
M2845.582520,1490.951660 
	C2845.800049,1491.307861 2845.584717,1491.609253 2844.999512,1491.945068 
	C2844.652100,1491.572998 2844.825195,1491.212158 2845.582520,1490.951660 
z"/>
<path fill="#E9F6F5" opacity="1.000000" stroke="none" 
	d="
M2857.771240,1476.717163 
	C2858.078857,1476.694092 2857.648682,1477.531738 2857.453613,1477.665283 
	C2856.942871,1477.371582 2857.011230,1477.018677 2857.771240,1476.717163 
z"/>
<path fill="#E9F6F5" opacity="1.000000" stroke="none" 
	d="
M2859.718750,1474.766724 
	C2859.930664,1475.136230 2859.671875,1475.492554 2859.003662,1475.916992 
	C2858.672607,1475.522583 2858.890625,1475.111938 2859.718750,1474.766724 
z"/>
<path fill="#E9F6F5" opacity="1.000000" stroke="none" 
	d="
M2861.718750,1472.779663 
	C2861.927979,1473.145386 2861.671631,1473.497070 2861.011475,1473.916504 
	C2860.683594,1473.526489 2860.898926,1473.120239 2861.718750,1472.779663 
z"/>
<path fill="#E9F6F5" opacity="1.000000" stroke="none" 
	d="
M2863.719727,1470.783447 
	C2863.928223,1471.147461 2863.673340,1471.497437 2863.017578,1471.915771 
	C2862.689453,1471.527222 2862.902832,1471.122314 2863.719727,1470.783447 
z"/>
<path fill="#E9F6F5" opacity="1.000000" stroke="none" 
	d="
M2865.595703,1468.898926 
	C2865.822266,1469.252808 2865.603760,1469.571045 2864.999512,1469.932373 
	C2864.654785,1469.562622 2864.833740,1469.191895 2865.595703,1468.898926 
z"/>
</svg>